<svg width="272" height="30" viewBox="0 0 272 30" fill="none" xmlns="http://www.w3.org/2000/svg">
<path d="M20.8499 21.25L24.2249 17.875L20.8499 14.5" stroke="black" stroke-linecap="round" stroke-linejoin="round"/>
<path d="M13.75 22.9375C14.1246 21.4885 14.97 20.2051 16.1533 19.2887C17.3366 18.3724 18.7907 17.8751 20.2873 17.875H24.2248" stroke="black" stroke-linecap="round" stroke-linejoin="round"/>
<path d="M38.835 24.13C38.2023 24.13 37.6433 24.0433 37.158 23.87C36.6727 23.688 36.209 23.3977 35.767 22.999C35.585 22.843 35.494 22.6653 35.494 22.466C35.494 22.31 35.5547 22.1713 35.676 22.05C35.7973 21.92 35.9403 21.855 36.105 21.855C36.2523 21.855 36.378 21.9027 36.482 21.998C36.8287 22.3187 37.184 22.557 37.548 22.713C37.9207 22.8603 38.341 22.934 38.809 22.934C39.355 22.934 39.8143 22.8083 40.187 22.557C40.5683 22.3057 40.759 21.9893 40.759 21.608C40.7503 21.1573 40.5597 20.8107 40.187 20.568C39.823 20.3167 39.264 20.1087 38.51 19.944C37.6173 19.762 36.9283 19.463 36.443 19.047C35.9663 18.631 35.728 18.0547 35.728 17.318C35.728 16.8067 35.8623 16.3603 36.131 15.979C36.3997 15.589 36.7723 15.29 37.249 15.082C37.7257 14.874 38.263 14.77 38.861 14.77C39.3983 14.77 39.9053 14.8567 40.382 15.03C40.8587 15.2033 41.2443 15.433 41.539 15.719C41.7383 15.8923 41.838 16.0787 41.838 16.278C41.838 16.434 41.7773 16.5727 41.656 16.694C41.5433 16.8153 41.4047 16.876 41.24 16.876C41.1187 16.876 41.019 16.8413 40.941 16.772C40.7157 16.5467 40.4037 16.356 40.005 16.2C39.6063 16.044 39.225 15.966 38.861 15.966C38.2803 15.966 37.8167 16.0873 37.47 16.33C37.132 16.564 36.963 16.876 36.963 17.266C36.963 17.6907 37.132 18.0157 37.47 18.241C37.8167 18.4663 38.328 18.657 39.004 18.813C39.68 18.9603 40.2303 19.1337 40.655 19.333C41.0883 19.5323 41.422 19.8097 41.656 20.165C41.89 20.5203 42.007 20.984 42.007 21.556C42.007 22.0587 41.864 22.505 41.578 22.895C41.3007 23.285 40.9193 23.5883 40.434 23.805C39.9487 24.0217 39.4157 24.13 38.835 24.13ZM49.4694 20.334C49.4607 20.49 49.3957 20.6243 49.2744 20.737C49.1531 20.841 49.0101 20.893 48.8454 20.893H44.2694C44.3301 21.5257 44.5684 22.0327 44.9844 22.414C45.4091 22.7953 45.9247 22.986 46.5314 22.986C46.9474 22.986 47.2854 22.9253 47.5454 22.804C47.8054 22.6827 48.0351 22.5267 48.2344 22.336C48.3644 22.258 48.4901 22.219 48.6114 22.219C48.7587 22.219 48.8801 22.271 48.9754 22.375C49.0794 22.479 49.1314 22.6003 49.1314 22.739C49.1314 22.921 49.0447 23.0857 48.8714 23.233C48.6201 23.4843 48.2864 23.6967 47.8704 23.87C47.4544 24.0433 47.0297 24.13 46.5964 24.13C45.8944 24.13 45.2747 23.9827 44.7374 23.688C44.2087 23.3933 43.7971 22.9817 43.5024 22.453C43.2164 21.9243 43.0734 21.3263 43.0734 20.659C43.0734 19.931 43.2207 19.294 43.5154 18.748C43.8187 18.1933 44.2131 17.7687 44.6984 17.474C45.1924 17.1793 45.7211 17.032 46.2844 17.032C46.8391 17.032 47.3591 17.175 47.8444 17.461C48.3297 17.747 48.7197 18.1413 49.0144 18.644C49.3091 19.1467 49.4607 19.71 49.4694 20.334ZM46.2844 18.176C45.7991 18.176 45.3787 18.3147 45.0234 18.592C44.6681 18.8607 44.4341 19.281 44.3214 19.853H48.1564V19.749C48.1131 19.2897 47.9051 18.9127 47.5324 18.618C47.1684 18.3233 46.7524 18.176 46.2844 18.176ZM53.8675 17.032C54.5521 17.032 55.1198 17.1403 55.5705 17.357C56.0298 17.5737 56.2595 17.851 56.2595 18.189C56.2595 18.3363 56.2118 18.4707 56.1165 18.592C56.0211 18.7047 55.8998 18.761 55.7525 18.761C55.6398 18.761 55.5488 18.7437 55.4795 18.709C55.4188 18.6743 55.3321 18.618 55.2195 18.54C55.1675 18.488 55.0851 18.4273 54.9725 18.358C54.8685 18.306 54.7211 18.2627 54.5305 18.228C54.3398 18.1933 54.1665 18.176 54.0105 18.176C53.5598 18.176 53.1611 18.28 52.8145 18.488C52.4678 18.696 52.1991 18.9863 52.0085 19.359C51.8178 19.723 51.7225 20.1303 51.7225 20.581C51.7225 21.0403 51.8135 21.452 51.9955 21.816C52.1861 22.18 52.4505 22.466 52.7885 22.674C53.1265 22.882 53.5121 22.986 53.9455 22.986C54.3961 22.986 54.7601 22.9167 55.0375 22.778C55.0981 22.7433 55.1805 22.687 55.2845 22.609C55.3711 22.5397 55.4448 22.4877 55.5055 22.453C55.5748 22.4183 55.6571 22.401 55.7525 22.401C55.9258 22.401 56.0601 22.4573 56.1555 22.57C56.2595 22.674 56.3115 22.8127 56.3115 22.986C56.3115 23.168 56.1945 23.35 55.9605 23.532C55.7351 23.7053 55.4275 23.8483 55.0375 23.961C54.6561 24.0737 54.2445 24.13 53.8025 24.13C53.1438 24.13 52.5631 23.9783 52.0605 23.675C51.5578 23.363 51.1678 22.9383 50.8905 22.401C50.6218 21.855 50.4875 21.2483 50.4875 20.581C50.4875 19.9137 50.6305 19.3113 50.9165 18.774C51.2025 18.228 51.6011 17.8033 52.1125 17.5C52.6238 17.188 53.2088 17.032 53.8675 17.032ZM59.4272 18.397V22.271C59.4272 22.7043 59.6222 22.921 60.0122 22.921C60.0729 22.921 60.1552 22.908 60.2592 22.882C60.3632 22.8473 60.4455 22.83 60.5062 22.83C60.6189 22.83 60.7142 22.8777 60.7922 22.973C60.8702 23.0683 60.9092 23.1897 60.9092 23.337C60.9092 23.519 60.8052 23.675 60.5972 23.805C60.3892 23.935 60.1552 24 59.8952 24C59.6092 24 59.3449 23.9697 59.1022 23.909C58.8682 23.8483 58.6559 23.6967 58.4652 23.454C58.2832 23.2027 58.1922 22.8257 58.1922 22.323V18.397H57.4382C57.2735 18.397 57.1349 18.345 57.0222 18.241C56.9182 18.1283 56.8662 17.9897 56.8662 17.825C56.8662 17.6603 56.9182 17.526 57.0222 17.422C57.1349 17.318 57.2735 17.266 57.4382 17.266H58.1922V16.174C58.1922 16.0007 58.2485 15.8533 58.3612 15.732C58.4825 15.6107 58.6342 15.55 58.8162 15.55C58.9895 15.55 59.1325 15.6107 59.2452 15.732C59.3665 15.8533 59.4272 16.0007 59.4272 16.174V17.266H60.5062C60.6709 17.266 60.8052 17.3223 60.9092 17.435C61.0219 17.539 61.0782 17.6733 61.0782 17.838C61.0782 18.0027 61.0219 18.137 60.9092 18.241C60.8052 18.345 60.6709 18.397 60.5062 18.397H59.4272ZM63.6897 23.376C63.6897 23.5493 63.629 23.6967 63.5077 23.818C63.395 23.9393 63.2477 24 63.0657 24C62.8923 24 62.745 23.9393 62.6237 23.818C62.511 23.6967 62.4547 23.5493 62.4547 23.376V17.747C62.4547 17.5737 62.511 17.4263 62.6237 17.305C62.745 17.1837 62.8923 17.123 63.0657 17.123C63.2477 17.123 63.395 17.1837 63.5077 17.305C63.629 17.4263 63.6897 17.5737 63.6897 17.747V23.376ZM63.0657 16.265C62.8143 16.265 62.6323 16.2217 62.5197 16.135C62.4157 16.0397 62.3637 15.8923 62.3637 15.693V15.485C62.3637 15.277 62.42 15.1297 62.5327 15.043C62.654 14.9563 62.836 14.913 63.0787 14.913C63.3213 14.913 63.4947 14.9607 63.5987 15.056C63.7113 15.1427 63.7677 15.2857 63.7677 15.485V15.693C63.7677 15.901 63.7113 16.0483 63.5987 16.135C63.486 16.2217 63.3083 16.265 63.0657 16.265ZM71.913 20.594C71.913 21.27 71.7613 21.8767 71.458 22.414C71.1547 22.9513 70.7387 23.3717 70.21 23.675C69.69 23.9783 69.1137 24.13 68.481 24.13C67.8483 24.13 67.2677 23.9783 66.739 23.675C66.219 23.3717 65.8073 22.9513 65.504 22.414C65.2007 21.8767 65.049 21.27 65.049 20.594C65.049 19.918 65.2007 19.307 65.504 18.761C65.8073 18.215 66.219 17.7903 66.739 17.487C67.2677 17.1837 67.8483 17.032 68.481 17.032C69.1137 17.032 69.69 17.1837 70.21 17.487C70.7387 17.7903 71.1547 18.215 71.458 18.761C71.7613 19.307 71.913 19.918 71.913 20.594ZM70.678 20.594C70.678 20.126 70.5783 19.71 70.379 19.346C70.1883 18.9733 69.924 18.6873 69.586 18.488C69.2567 18.28 68.8883 18.176 68.481 18.176C68.0737 18.176 67.701 18.28 67.363 18.488C67.0337 18.6873 66.7693 18.9733 66.57 19.346C66.3793 19.71 66.284 20.126 66.284 20.594C66.284 21.0533 66.3793 21.465 66.57 21.829C66.7693 22.193 67.0337 22.479 67.363 22.687C67.701 22.8863 68.0737 22.986 68.481 22.986C68.8883 22.986 69.2567 22.8863 69.586 22.687C69.924 22.479 70.1883 22.193 70.379 21.829C70.5783 21.465 70.678 21.0533 70.678 20.594ZM76.8198 17.032C78.3798 17.032 79.1598 17.968 79.1598 19.84V23.376C79.1598 23.5493 79.0991 23.6967 78.9778 23.818C78.8651 23.9393 78.7178 24 78.5358 24C78.3624 24 78.2151 23.9393 78.0938 23.818C77.9811 23.6967 77.9248 23.5493 77.9248 23.376V19.853C77.9248 19.3417 77.8078 18.9343 77.5738 18.631C77.3398 18.3277 76.9584 18.176 76.4298 18.176C76.0831 18.176 75.7668 18.254 75.4808 18.41C75.2034 18.5573 74.9824 18.761 74.8178 19.021C74.6618 19.2723 74.5838 19.5497 74.5838 19.853V23.376C74.5838 23.5493 74.5231 23.6967 74.4018 23.818C74.2891 23.9393 74.1418 24 73.9598 24C73.7778 24 73.6304 23.9437 73.5178 23.831C73.4051 23.7097 73.3488 23.558 73.3488 23.376V17.812C73.3488 17.6387 73.4051 17.4913 73.5178 17.37C73.6391 17.2487 73.7864 17.188 73.9598 17.188C74.1418 17.188 74.2891 17.2487 74.4018 17.37C74.5231 17.4913 74.5838 17.6387 74.5838 17.812V18.267C74.8091 17.9203 75.1211 17.63 75.5198 17.396C75.9271 17.1533 76.3604 17.032 76.8198 17.032ZM80.6141 22.934C80.5361 22.8127 80.4971 22.6957 80.4971 22.583C80.4971 22.4097 80.5881 22.2623 80.7701 22.141C80.8567 22.0803 80.9564 22.05 81.0691 22.05C81.2251 22.05 81.3681 22.115 81.4981 22.245C81.7581 22.5397 82.0354 22.7607 82.3301 22.908C82.6334 23.0553 82.9931 23.129 83.4091 23.129C83.7384 23.1203 84.0287 23.0467 84.2801 22.908C84.5314 22.7607 84.6571 22.5267 84.6571 22.206C84.6571 21.9113 84.5271 21.686 84.2671 21.53C84.0157 21.374 83.6431 21.231 83.1491 21.101C82.6637 20.971 82.2607 20.8367 81.9401 20.698C81.6194 20.5507 81.3464 20.3427 81.1211 20.074C80.9044 19.7967 80.7961 19.437 80.7961 18.995C80.7961 18.605 80.9044 18.2627 81.1211 17.968C81.3464 17.6733 81.6411 17.4437 82.0051 17.279C82.3777 17.1143 82.7807 17.032 83.2141 17.032C83.6301 17.032 84.0417 17.11 84.4491 17.266C84.8651 17.422 85.2031 17.6603 85.4631 17.981C85.5671 18.1023 85.6191 18.228 85.6191 18.358C85.6191 18.4967 85.5497 18.631 85.4111 18.761C85.3244 18.839 85.2161 18.878 85.0861 18.878C84.9301 18.878 84.8044 18.826 84.7091 18.722C84.5271 18.514 84.3017 18.3537 84.0331 18.241C83.7731 18.1283 83.4827 18.072 83.1621 18.072C82.8327 18.072 82.5511 18.1413 82.3171 18.28C82.0917 18.41 81.9791 18.6353 81.9791 18.956C81.9877 19.2593 82.1177 19.4847 82.3691 19.632C82.6291 19.7793 83.0234 19.9223 83.5521 20.061C84.0114 20.1823 84.3927 20.3123 84.6961 20.451C84.9994 20.5897 85.2551 20.7977 85.4631 21.075C85.6711 21.3437 85.7751 21.699 85.7751 22.141C85.7751 22.5483 85.6581 22.9037 85.4241 23.207C85.1901 23.5017 84.8824 23.7313 84.5011 23.896C84.1284 24.052 83.7297 24.13 83.3051 24.13C82.7591 24.13 82.2521 24.0347 81.7841 23.844C81.3247 23.6533 80.9347 23.35 80.6141 22.934ZM90.4148 22.934C90.3368 22.8127 90.2978 22.6957 90.2978 22.583C90.2978 22.4097 90.3888 22.2623 90.5708 22.141C90.6575 22.0803 90.7572 22.05 90.8698 22.05C91.0258 22.05 91.1688 22.115 91.2988 22.245C91.5588 22.5397 91.8362 22.7607 92.1308 22.908C92.4342 23.0553 92.7938 23.129 93.2098 23.129C93.5392 23.1203 93.8295 23.0467 94.0808 22.908C94.3322 22.7607 94.4578 22.5267 94.4578 22.206C94.4578 21.9113 94.3278 21.686 94.0678 21.53C93.8165 21.374 93.4438 21.231 92.9498 21.101C92.4645 20.971 92.0615 20.8367 91.7408 20.698C91.4202 20.5507 91.1472 20.3427 90.9218 20.074C90.7052 19.7967 90.5968 19.437 90.5968 18.995C90.5968 18.605 90.7052 18.2627 90.9218 17.968C91.1472 17.6733 91.4418 17.4437 91.8058 17.279C92.1785 17.1143 92.5815 17.032 93.0148 17.032C93.4308 17.032 93.8425 17.11 94.2498 17.266C94.6658 17.422 95.0038 17.6603 95.2638 17.981C95.3678 18.1023 95.4198 18.228 95.4198 18.358C95.4198 18.4967 95.3505 18.631 95.2118 18.761C95.1252 18.839 95.0168 18.878 94.8868 18.878C94.7308 18.878 94.6052 18.826 94.5098 18.722C94.3278 18.514 94.1025 18.3537 93.8338 18.241C93.5738 18.1283 93.2835 18.072 92.9628 18.072C92.6335 18.072 92.3518 18.1413 92.1178 18.28C91.8925 18.41 91.7798 18.6353 91.7798 18.956C91.7885 19.2593 91.9185 19.4847 92.1698 19.632C92.4298 19.7793 92.8242 19.9223 93.3528 20.061C93.8122 20.1823 94.1935 20.3123 94.4968 20.451C94.8002 20.5897 95.0558 20.7977 95.2638 21.075C95.4718 21.3437 95.5758 21.699 95.5758 22.141C95.5758 22.5483 95.4588 22.9037 95.2248 23.207C94.9908 23.5017 94.6832 23.7313 94.3018 23.896C93.9292 24.052 93.5305 24.13 93.1058 24.13C92.5598 24.13 92.0528 24.0347 91.5848 23.844C91.1255 23.6533 90.7355 23.35 90.4148 22.934ZM100.393 17.071C101.918 17.071 102.681 18.0157 102.681 19.905V23.376C102.681 23.5493 102.62 23.6967 102.499 23.818C102.386 23.9393 102.239 24 102.057 24C101.884 24 101.736 23.9393 101.615 23.818C101.502 23.6967 101.446 23.5493 101.446 23.376V19.905C101.446 18.7783 100.969 18.215 100.016 18.215C99.5048 18.215 99.0801 18.3797 98.7421 18.709C98.4041 19.0297 98.2351 19.4283 98.2351 19.905V23.376C98.2351 23.5493 98.1745 23.6967 98.0531 23.818C97.9405 23.9393 97.7931 24 97.6111 24C97.4291 24 97.2818 23.9437 97.1691 23.831C97.0565 23.7097 97.0001 23.558 97.0001 23.376V15.004C97.0001 14.8307 97.0565 14.6833 97.1691 14.562C97.2905 14.4407 97.4378 14.38 97.6111 14.38C97.7931 14.38 97.9405 14.4407 98.0531 14.562C98.1745 14.6833 98.2351 14.8307 98.2351 15.004V18.293C98.4518 17.955 98.7551 17.669 99.1451 17.435C99.5351 17.1923 99.9511 17.071 100.393 17.071ZM110.053 17.097C110.235 17.097 110.383 17.1577 110.495 17.279C110.617 17.3917 110.677 17.5433 110.677 17.734V23.376C110.677 23.5493 110.617 23.6967 110.495 23.818C110.383 23.9393 110.235 24 110.053 24C109.871 24 109.724 23.9437 109.611 23.831C109.499 23.7097 109.442 23.558 109.442 23.376V23.038C109.217 23.3413 108.909 23.6013 108.519 23.818C108.129 24.026 107.709 24.13 107.258 24.13C106.669 24.13 106.132 23.9783 105.646 23.675C105.17 23.3717 104.793 22.9513 104.515 22.414C104.247 21.868 104.112 21.257 104.112 20.581C104.112 19.905 104.247 19.2983 104.515 18.761C104.793 18.215 105.17 17.7903 105.646 17.487C106.123 17.1837 106.647 17.032 107.219 17.032C107.679 17.032 108.103 17.1273 108.493 17.318C108.892 17.5087 109.208 17.7513 109.442 18.046V17.734C109.442 17.552 109.499 17.4003 109.611 17.279C109.724 17.1577 109.871 17.097 110.053 17.097ZM107.401 22.986C107.809 22.986 108.168 22.882 108.48 22.674C108.801 22.466 109.048 22.18 109.221 21.816C109.403 21.452 109.494 21.0403 109.494 20.581C109.494 20.1303 109.403 19.723 109.221 19.359C109.048 18.995 108.801 18.709 108.48 18.501C108.168 18.2843 107.809 18.176 107.401 18.176C106.994 18.176 106.63 18.28 106.309 18.488C105.997 18.696 105.75 18.982 105.568 19.346C105.395 19.71 105.308 20.1217 105.308 20.581C105.308 21.0403 105.395 21.452 105.568 21.816C105.75 22.18 105.997 22.466 106.309 22.674C106.63 22.882 106.994 22.986 107.401 22.986ZM115.907 17.032C116.132 17.032 116.327 17.0927 116.492 17.214C116.656 17.3267 116.739 17.4697 116.739 17.643C116.739 17.851 116.682 18.0113 116.57 18.124C116.466 18.228 116.336 18.28 116.18 18.28C116.102 18.28 115.985 18.254 115.829 18.202C115.647 18.1413 115.504 18.111 115.4 18.111C115.131 18.111 114.867 18.2063 114.607 18.397C114.355 18.579 114.147 18.8347 113.983 19.164C113.827 19.4847 113.749 19.8443 113.749 20.243V23.376C113.749 23.5493 113.688 23.6967 113.567 23.818C113.454 23.9393 113.307 24 113.125 24C112.943 24 112.795 23.9437 112.683 23.831C112.57 23.7097 112.514 23.558 112.514 23.376V17.812C112.514 17.6387 112.57 17.4913 112.683 17.37C112.804 17.2487 112.951 17.188 113.125 17.188C113.307 17.188 113.454 17.2487 113.567 17.37C113.688 17.4913 113.749 17.6387 113.749 17.812V18.475C113.939 18.0503 114.225 17.708 114.607 17.448C114.988 17.1793 115.421 17.0407 115.907 17.032ZM123.572 20.334C123.563 20.49 123.498 20.6243 123.377 20.737C123.256 20.841 123.113 20.893 122.948 20.893H118.372C118.433 21.5257 118.671 22.0327 119.087 22.414C119.512 22.7953 120.027 22.986 120.634 22.986C121.05 22.986 121.388 22.9253 121.648 22.804C121.908 22.6827 122.138 22.5267 122.337 22.336C122.467 22.258 122.593 22.219 122.714 22.219C122.861 22.219 122.983 22.271 123.078 22.375C123.182 22.479 123.234 22.6003 123.234 22.739C123.234 22.921 123.147 23.0857 122.974 23.233C122.723 23.4843 122.389 23.6967 121.973 23.87C121.557 24.0433 121.132 24.13 120.699 24.13C119.997 24.13 119.377 23.9827 118.84 23.688C118.311 23.3933 117.9 22.9817 117.605 22.453C117.319 21.9243 117.176 21.3263 117.176 20.659C117.176 19.931 117.323 19.294 117.618 18.748C117.921 18.1933 118.316 17.7687 118.801 17.474C119.295 17.1793 119.824 17.032 120.387 17.032C120.942 17.032 121.462 17.175 121.947 17.461C122.432 17.747 122.822 18.1413 123.117 18.644C123.412 19.1467 123.563 19.71 123.572 20.334ZM120.387 18.176C119.902 18.176 119.481 18.3147 119.126 18.592C118.771 18.8607 118.537 19.281 118.424 19.853H122.259V19.749C122.216 19.2897 122.008 18.9127 121.635 18.618C121.271 18.3233 120.855 18.176 120.387 18.176ZM130.531 14.38C130.713 14.38 130.86 14.4407 130.973 14.562C131.094 14.6747 131.155 14.822 131.155 15.004V23.376C131.155 23.5493 131.094 23.6967 130.973 23.818C130.86 23.9393 130.713 24 130.531 24C130.349 24 130.202 23.9437 130.089 23.831C129.976 23.7097 129.92 23.558 129.92 23.376V23.012C129.703 23.324 129.396 23.5883 128.997 23.805C128.607 24.0217 128.187 24.13 127.736 24.13C127.147 24.13 126.614 23.9783 126.137 23.675C125.66 23.3717 125.283 22.9513 125.006 22.414C124.729 21.868 124.59 21.257 124.59 20.581C124.59 19.905 124.724 19.2983 124.993 18.761C125.27 18.215 125.647 17.7903 126.124 17.487C126.601 17.1837 127.125 17.032 127.697 17.032C128.156 17.032 128.581 17.1273 128.971 17.318C129.361 17.5087 129.677 17.7557 129.92 18.059V15.004C129.92 14.822 129.976 14.6747 130.089 14.562C130.202 14.4407 130.349 14.38 130.531 14.38ZM127.879 22.986C128.286 22.986 128.646 22.882 128.958 22.674C129.279 22.466 129.526 22.18 129.699 21.816C129.881 21.452 129.972 21.0403 129.972 20.581C129.972 20.1303 129.881 19.723 129.699 19.359C129.526 18.9863 129.279 18.696 128.958 18.488C128.646 18.28 128.286 18.176 127.879 18.176C127.472 18.176 127.108 18.28 126.787 18.488C126.475 18.696 126.228 18.9863 126.046 19.359C125.873 19.723 125.786 20.1303 125.786 20.581C125.786 21.0403 125.873 21.452 126.046 21.816C126.228 22.18 126.475 22.466 126.787 22.674C127.108 22.882 127.472 22.986 127.879 22.986Z" fill="#020202"/>
</svg>
