<svg width="49" height="25" viewBox="0 0 49 25" fill="none" xmlns="http://www.w3.org/2000/svg">
<path d="M30.694 17.132C30.722 17.216 30.736 17.3047 30.736 17.398C30.736 17.5847 30.6707 17.7387 30.54 17.86C30.4187 17.9813 30.274 18.042 30.106 18.042C29.9753 18.042 29.854 18.0047 29.742 17.93C29.6393 17.846 29.5553 17.734 29.49 17.594L28.622 15.536H24.296L23.442 17.608C23.3953 17.748 23.316 17.8553 23.204 17.93C23.1013 18.0047 22.9847 18.042 22.854 18.042C22.658 18.042 22.5087 17.9907 22.406 17.888C22.3033 17.7853 22.252 17.6453 22.252 17.468C22.252 17.4307 22.2613 17.356 22.28 17.244L25.85 8.592C25.9153 8.44267 26.004 8.33067 26.116 8.256C26.2373 8.172 26.3727 8.13933 26.522 8.158C26.662 8.158 26.788 8.19533 26.9 8.27C27.012 8.34467 27.0913 8.452 27.138 8.592L30.694 17.132ZM28.09 14.262L26.452 10.342L24.828 14.262H28.09ZM37.9264 7.64C38.1224 7.64 38.2811 7.70533 38.4024 7.836C38.5331 7.95733 38.5984 8.116 38.5984 8.312V17.328C38.5984 17.5147 38.5331 17.6733 38.4024 17.804C38.2811 17.9347 38.1224 18 37.9264 18C37.7304 18 37.5718 17.9393 37.4504 17.818C37.3291 17.6873 37.2684 17.524 37.2684 17.328V16.936C37.0351 17.272 36.7038 17.5567 36.2744 17.79C35.8544 18.0233 35.4018 18.14 34.9164 18.14C34.2818 18.14 33.7078 17.9767 33.1944 17.65C32.6811 17.3233 32.2751 16.8707 31.9764 16.292C31.6778 15.704 31.5284 15.046 31.5284 14.318C31.5284 13.59 31.6731 12.9367 31.9624 12.358C32.2611 11.77 32.6671 11.3127 33.1804 10.986C33.6938 10.6593 34.2584 10.496 34.8744 10.496C35.3691 10.496 35.8264 10.5987 36.2464 10.804C36.6664 11.0093 37.0071 11.2753 37.2684 11.602V8.312C37.2684 8.116 37.3291 7.95733 37.4504 7.836C37.5718 7.70533 37.7304 7.64 37.9264 7.64ZM35.0704 16.908C35.5091 16.908 35.8964 16.796 36.2324 16.572C36.5778 16.348 36.8438 16.04 37.0304 15.648C37.2264 15.256 37.3244 14.8127 37.3244 14.318C37.3244 13.8327 37.2264 13.394 37.0304 13.002C36.8438 12.6007 36.5778 12.288 36.2324 12.064C35.8964 11.84 35.5091 11.728 35.0704 11.728C34.6318 11.728 34.2398 11.84 33.8944 12.064C33.5584 12.288 33.2924 12.6007 33.0964 13.002C32.9098 13.394 32.8164 13.8327 32.8164 14.318C32.8164 14.8127 32.9098 15.256 33.0964 15.648C33.2924 16.04 33.5584 16.348 33.8944 16.572C34.2398 16.796 34.6318 16.908 35.0704 16.908ZM46.526 7.64C46.722 7.64 46.8807 7.70533 47.002 7.836C47.1327 7.95733 47.198 8.116 47.198 8.312V17.328C47.198 17.5147 47.1327 17.6733 47.002 17.804C46.8807 17.9347 46.722 18 46.526 18C46.33 18 46.1714 17.9393 46.05 17.818C45.9287 17.6873 45.868 17.524 45.868 17.328V16.936C45.6347 17.272 45.3034 17.5567 44.874 17.79C44.454 18.0233 44.0014 18.14 43.516 18.14C42.8814 18.14 42.3074 17.9767 41.794 17.65C41.2807 17.3233 40.8747 16.8707 40.576 16.292C40.2774 15.704 40.128 15.046 40.128 14.318C40.128 13.59 40.2727 12.9367 40.562 12.358C40.8607 11.77 41.2667 11.3127 41.78 10.986C42.2934 10.6593 42.858 10.496 43.474 10.496C43.9687 10.496 44.426 10.5987 44.846 10.804C45.266 11.0093 45.6067 11.2753 45.868 11.602V8.312C45.868 8.116 45.9287 7.95733 46.05 7.836C46.1714 7.70533 46.33 7.64 46.526 7.64ZM43.67 16.908C44.1087 16.908 44.496 16.796 44.832 16.572C45.1774 16.348 45.4434 16.04 45.63 15.648C45.826 15.256 45.924 14.8127 45.924 14.318C45.924 13.8327 45.826 13.394 45.63 13.002C45.4434 12.6007 45.1774 12.288 44.832 12.064C44.496 11.84 44.1087 11.728 43.67 11.728C43.2314 11.728 42.8394 11.84 42.494 12.064C42.158 12.288 41.892 12.6007 41.696 13.002C41.5094 13.394 41.416 13.8327 41.416 14.318C41.416 14.8127 41.5094 15.256 41.696 15.648C41.892 16.04 42.158 16.348 42.494 16.572C42.8394 16.796 43.2314 16.908 43.67 16.908Z" fill="black" fill-opacity="0.3"/>
<path d="M2.5 13H13.5" stroke="black" stroke-opacity="0.3" stroke-linecap="round" stroke-linejoin="round"/>
<path d="M8 7.5V18.5" stroke="black" stroke-opacity="0.3" stroke-linecap="round" stroke-linejoin="round"/>
</svg>
