<svg width="185" height="40" viewBox="0 0 185 40" fill="none" xmlns="http://www.w3.org/2000/svg">
<path d="M31.156 0V35.2617C31.156 36.4738 30.7884 37.5207 30.0531 38.4022C29.3179 39.247 28.454 39.6694 27.4614 39.6694C24.9248 39.6694 22.8477 38.2002 21.2302 35.2617L7.66493 14.0496V39.2286H0V0H7.38921L23.4911 25.6749V0H31.156Z" fill="white"/>
<path d="M55.5966 25.0138V22.1488C55.5966 19.4307 55.1922 17.3554 54.3834 15.9229C53.6114 14.4904 51.9755 13.7741 49.4757 13.7741C45.4318 13.7741 43.4099 16.4922 43.4099 21.9284V24.7934C43.4099 30.6336 45.4318 33.5537 49.4757 33.5537C52.0858 33.5537 53.7952 32.5803 54.604 30.6336C55.2657 29.0909 55.5966 27.2176 55.5966 25.0138ZM62.7652 23.3609C62.7652 30.1561 61.4786 34.7107 58.9052 37.0248C56.7362 39.0083 53.593 40 49.4757 40C44.2187 40 40.6711 38.4573 38.833 35.3719C37.1052 32.5436 36.2413 28.5399 36.2413 23.3609C36.2413 18.5124 37.1052 14.7107 38.833 11.9559C40.7446 8.87052 44.2187 7.32782 49.2551 7.32782C54.3283 7.32782 57.8391 8.68686 59.7875 11.405C61.7726 14.0863 62.7652 18.0716 62.7652 23.3609Z" fill="white"/>
<path d="M98.6618 19.449L98.717 23.6915C98.5699 26.3728 98.2391 28.6318 97.7244 30.4683C97.2097 32.3049 96.1988 33.9761 94.6915 35.4821C92.1917 37.9798 88.5522 39.2286 83.7731 39.2286C78.1485 39.2286 74.2885 38.494 72.193 37.0248C70.0976 35.5188 69.0499 32.8191 69.0499 28.9256V0H84.3246C88.736 0 92.1917 1.24885 94.6915 3.74655C96.7135 5.76676 97.9082 8.22773 98.2758 11.1295C98.5332 13.1864 98.6618 15.9596 98.6618 19.449ZM89.3426 29.9724C90.0411 29.1276 90.4822 27.9706 90.6661 26.5014C90.8866 24.9954 90.9969 22.663 90.9969 19.5041C90.9969 16.3453 90.8866 14.0679 90.6661 12.6722C90.4822 11.2397 90.0411 10.101 89.3426 9.2562C88.0192 7.64003 86.1075 6.83195 83.6077 6.83195H76.7148V28.5399C76.7148 30.0092 77.2111 31.0193 78.2036 31.5702C79.1962 32.1212 80.9608 32.3967 83.4974 32.3967C86.0708 32.3967 88.0192 31.5886 89.3426 29.9724Z" fill="white"/>
<path d="M121.887 25.0138V22.1488C121.887 19.4307 121.483 17.3554 120.674 15.9229C119.902 14.4904 118.266 13.7741 115.766 13.7741C111.722 13.7741 109.7 16.4922 109.7 21.9284V24.7934C109.7 30.6336 111.722 33.5537 115.766 33.5537C118.376 33.5537 120.086 32.5803 120.895 30.6336C121.556 29.0909 121.887 27.2176 121.887 25.0138ZM129.056 23.3609C129.056 30.1561 127.769 34.7107 125.196 37.0248C123.027 39.0083 119.884 40 115.766 40C110.509 40 106.962 38.4573 105.124 35.3719C103.396 32.5436 102.532 28.5399 102.532 23.3609C102.532 18.5124 103.396 14.7107 105.124 11.9559C107.035 8.87052 110.509 7.32782 115.546 7.32782C120.619 7.32782 124.13 8.68686 126.078 11.405C128.063 14.0863 129.056 18.0716 129.056 23.3609Z" fill="white"/>
<path d="M150.891 27.7135L157.398 27.6584C157.361 27.9522 157.324 28.4848 157.287 29.2562C157.251 30.0275 157.214 30.5601 157.177 30.854C157.177 31.1111 157.14 31.5335 157.067 32.1212C156.993 32.7089 156.901 33.1497 156.791 33.4435C156.718 33.7006 156.607 34.0496 156.46 34.4904C155.799 36.4004 153.997 37.9063 151.056 39.0083C149.181 39.6694 147.215 40 145.156 40C143.134 40 141.296 39.6694 139.642 39.0083C137.987 38.3471 136.682 37.5023 135.726 36.4738C133.557 34.1965 132.473 29.9357 132.473 23.6915C132.473 17.4105 133.557 13.1313 135.726 10.854C136.682 9.82553 137.987 8.98071 139.642 8.31956C141.296 7.6584 143.134 7.32782 145.156 7.32782C149.126 7.32782 152.141 8.31956 154.199 10.303C156.258 12.2865 157.287 15.0413 157.287 18.5675H150.781C150.781 16.9513 150.376 15.7576 149.567 14.9862C148.759 14.1781 147.251 13.7741 145.046 13.7741C142.877 13.7741 141.425 14.4536 140.689 15.8127C139.991 17.1717 139.642 19.2103 139.642 21.9284V24.7934C139.642 29.1644 140.487 31.8457 142.178 32.8375C142.95 33.315 143.961 33.5537 145.211 33.5537C146.461 33.5537 147.472 33.4435 148.244 33.2231C149.053 32.966 149.623 32.5436 149.953 31.9559C150.321 31.3682 150.56 30.7989 150.67 30.2479C150.781 29.6602 150.854 28.8154 150.891 27.7135Z" fill="white"/>
<path d="M185 30.5234V31.3499C184.779 34.1047 183.603 36.18 181.471 37.5758C179.375 38.9715 176.747 39.6694 173.585 39.6694C168.917 39.6694 165.645 38.8246 163.77 37.135C162.042 35.5923 161.178 33.315 161.178 30.303V29.6419H167.685C167.685 31.3315 168.126 32.4885 169.008 33.1129C169.891 33.7374 171.416 34.0496 173.585 34.0496C176.526 34.0496 177.997 32.9844 177.997 30.854C177.997 29.0909 177.482 27.9155 176.453 27.3278C175.975 27.034 175.368 26.8136 174.633 26.6667L169.064 25.73C164.211 24.9587 161.785 21.9284 161.785 16.6391C161.785 13.7006 162.851 11.4233 164.983 9.80716C167.152 8.15427 169.891 7.32782 173.199 7.32782C180.736 7.32782 184.504 10.5785 184.504 17.0799V17.7961H178.273C178.199 16.0698 177.739 14.8944 176.894 14.27C176.048 13.6455 174.854 13.3333 173.31 13.3333C171.802 13.3333 170.663 13.6455 169.891 14.27C169.119 14.8577 168.733 15.5188 168.733 16.2534C168.733 18.3471 169.578 19.5409 171.269 19.8347L177.942 21.0468C182.647 21.9284 185 25.0872 185 30.5234Z" fill="white"/>
</svg>
