<svg width="244" height="137" viewBox="0 0 244 137" fill="none" xmlns="http://www.w3.org/2000/svg">
<rect width="244" height="137" rx="10" fill="#010000"/>
<path d="M115 68.5L122 75.5L129 68.5L122 61.5L115 68.5Z" stroke="white"/>
<line x1="122.5" y1="30.5" x2="122.5" y2="61.5" stroke="white" stroke-opacity="0.3"/>
<line x1="123.582" y1="62.2264" x2="140.582" y2="36.2264" stroke="white" stroke-opacity="0.3"/>
<line x1="126.745" y1="65.0699" x2="153.745" y2="49.0699" stroke="white" stroke-opacity="0.3"/>
<line x1="129" y1="68" x2="159" y2="68" stroke="white" stroke-opacity="0.3"/>
<line y1="-0.5" x2="31.0644" y2="-0.5" transform="matrix(-0.547249 -0.83697 -0.83697 0.547249 120 62.5)" stroke="white" stroke-opacity="0.3"/>
<line y1="-0.5" x2="31.3847" y2="-0.5" transform="matrix(-0.860292 -0.509802 -0.509802 0.860292 117 65.5)" stroke="white" stroke-opacity="0.3"/>
<line y1="-0.5" x2="30" y2="-0.5" transform="matrix(-1 0 0 1 115 68.5)" stroke="white" stroke-opacity="0.3"/>
<circle cx="79" cy="67.5" r="5.5" stroke="white"/>
<circle cx="85" cy="46.5" r="5.5" stroke="white"/>
<circle cx="100" cy="31.5" r="5.5" stroke="white"/>
<circle cx="122" cy="25.5" r="5.5" stroke="white"/>
<circle cx="144" cy="31.5" r="5.5" stroke="white"/>
<circle cx="159" cy="46.5" r="5.5" stroke="white"/>
<line y1="-0.5" x2="31" y2="-0.5" transform="matrix(-4.37112e-08 -1 -1 4.37112e-08 122 106.5)" stroke="white" stroke-opacity="0.3"/>
<line y1="-0.5" x2="31.0644" y2="-0.5" transform="matrix(0.547249 0.83697 0.83697 -0.547249 124 74.5)" stroke="white" stroke-opacity="0.3"/>
<line y1="-0.5" x2="31.3847" y2="-0.5" transform="matrix(0.860292 0.509802 0.509802 -0.860292 127 71.5)" stroke="white" stroke-opacity="0.3"/>
<line x1="120.418" y1="74.7736" x2="103.418" y2="100.774" stroke="white" stroke-opacity="0.3"/>
<line x1="117.255" y1="71.9301" x2="90.2549" y2="87.9301" stroke="white" stroke-opacity="0.3"/>
<circle r="5.5" transform="matrix(1 0 0 -1 85 90.5)" stroke="white"/>
<circle r="5.5" transform="matrix(1 0 0 -1 100 105.5)" stroke="white"/>
<circle r="5.5" transform="matrix(1 0 0 -1 122 111.5)" stroke="white"/>
<circle r="5.5" transform="matrix(1 0 0 -1 144 105.5)" stroke="white"/>
<circle r="5.5" transform="matrix(1 0 0 -1 159 90.5)" stroke="white"/>
<circle cx="165" cy="67.5" r="5.5" stroke="white"/>
</svg>
