<svg width="244" height="137" viewBox="0 0 244 137" fill="none" xmlns="http://www.w3.org/2000/svg">
<rect width="244" height="137" rx="10" fill="black"/>
<path d="M53.1661 104.95L57 97.6455L60.8339 104.95H53.1661Z" stroke="white" stroke-width="0.6"/>
<path d="M74.9342 105.272L74.6683 97.0268L81.6052 101.492L74.9342 105.272Z" stroke="white" stroke-width="0.6"/>
<path d="M100.834 98.05L97 105.354L93.1661 98.05L100.834 98.05Z" stroke="white" stroke-width="0.6"/>
<path d="M118.95 104.834L111.646 101L118.95 97.1661L118.95 104.834Z" stroke="white" stroke-width="0.6"/>
<path d="M132.383 104.013L136.735 97.005L140.031 104.567L132.383 104.013Z" stroke="white" stroke-width="0.6"/>
<path d="M193.166 104.95L197 97.6455L200.834 104.95H193.166Z" stroke="white" stroke-width="0.6"/>
<path d="M193.166 89.95L197 82.6455L200.834 89.95H193.166Z" stroke="white" stroke-width="0.6"/>
<path d="M193.166 73.95L197 66.6455L200.834 73.95H193.166Z" stroke="white" stroke-width="0.6"/>
<path d="M193.166 58.95L197 51.6455L200.834 58.95H193.166Z" stroke="white" stroke-width="0.6"/>
</svg>
