<svg width="572" height="290" viewBox="0 0 572 290" fill="none" xmlns="http://www.w3.org/2000/svg">
<circle cx="155" cy="281" r="8.5" fill="white" stroke="#EB5C68"/>
<circle cx="182" cy="281" r="8.5" fill="white" stroke="#EB5C68"/>
<circle cx="209" cy="281" r="8.5" fill="white" stroke="#EB5C68"/>
<circle cx="269" cy="281" r="8.5" fill="white" stroke="#FBB374"/>
<circle cx="296" cy="281" r="8.5" fill="white" stroke="#FBB374"/>
<circle cx="323" cy="281" r="8.5" fill="white" stroke="#FBB374"/>
<circle cx="383" cy="281" r="8.5" fill="white" stroke="#72D374"/>
<circle cx="410" cy="281" r="8.5" fill="white" stroke="#72D374"/>
<circle cx="437" cy="281" r="8.5" fill="white" stroke="#72D374"/>
<circle cx="497" cy="281" r="8.5" fill="white" stroke="#8F85FF"/>
<circle cx="524" cy="281" r="8.5" fill="white" stroke="#8F85FF"/>
<circle cx="551" cy="281" r="8.5" fill="white" stroke="#8F85FF"/>
<circle cx="95" cy="281" r="8.5" fill="white" stroke="#35A2F1"/>
<circle cx="68" cy="281" r="8.5" fill="white" stroke="#35A2F1"/>
<circle cx="41" cy="281" r="8.5" fill="white" stroke="#35A2F1"/>
<rect x="0.5" y="76.5" width="186" height="41" rx="20.5" stroke="white"/>
<path d="M20.0909 94H37" stroke="white" stroke-width="2" stroke-linecap="round" stroke-linejoin="round"/>
<path d="M32.5 88.75L29.5 105.25" stroke="white" stroke-width="2" stroke-linecap="round" stroke-linejoin="round"/>
<path d="M26.5 88.75L23.5 105.25" stroke="white" stroke-width="2" stroke-linecap="round" stroke-linejoin="round"/>
<path d="M19 100H35.9091" stroke="white" stroke-width="2" stroke-linecap="round" stroke-linejoin="round"/>
<rect x="202.5" y="76.5" width="186" height="41" rx="20.5" stroke="white"/>
<path d="M222.091 94H239" stroke="white" stroke-width="2" stroke-linecap="round" stroke-linejoin="round"/>
<path d="M234.5 88.75L231.5 105.25" stroke="white" stroke-width="2" stroke-linecap="round" stroke-linejoin="round"/>
<path d="M228.5 88.75L225.5 105.25" stroke="white" stroke-width="2" stroke-linecap="round" stroke-linejoin="round"/>
<path d="M221 100H237.909" stroke="white" stroke-width="2" stroke-linecap="round" stroke-linejoin="round"/>
<path d="M264.784 104.08C264.944 104.192 265.072 104.336 265.168 104.512C265.264 104.672 265.312 104.84 265.312 105.016C265.312 105.352 265.2 105.6 264.976 105.76C264.768 105.92 264.512 106 264.208 106C263.904 106 263.648 105.936 263.44 105.808C262.96 105.536 262.568 105.096 262.264 104.488C261.96 103.88 261.808 102.984 261.808 101.8C261.808 101 261.568 100.408 261.088 100.024C260.608 99.64 259.984 99.448 259.216 99.448H254.368V104.848C254.368 105.184 254.272 105.464 254.08 105.688C253.888 105.896 253.64 106 253.336 106C252.968 106 252.648 105.888 252.376 105.664C252.12 105.44 251.992 105.168 251.992 104.848V90.352C251.992 90.032 252.104 89.76 252.328 89.536C252.552 89.312 252.824 89.2 253.144 89.2H259.888C260.752 89.2 261.544 89.416 262.264 89.848C262.984 90.264 263.56 90.848 263.992 91.6C264.424 92.336 264.64 93.168 264.64 94.096C264.64 94.992 264.4 95.832 263.92 96.616C263.44 97.384 262.824 97.96 262.072 98.344C262.664 98.648 263.128 99.072 263.464 99.616C263.816 100.16 264.008 100.792 264.04 101.512C264.104 102.424 264.176 103.048 264.256 103.384C264.336 103.704 264.512 103.936 264.784 104.08ZM259.84 97.456C260.24 97.424 260.616 97.264 260.968 96.976C261.336 96.688 261.632 96.304 261.856 95.824C262.08 95.328 262.192 94.776 262.192 94.168C262.192 93.4 261.952 92.752 261.472 92.224C261.008 91.68 260.44 91.408 259.768 91.408H254.368V97.456H259.84Z" fill="white"/>
<path d="M279.803 99.712C279.803 100.96 279.523 102.08 278.963 103.072C278.403 104.064 277.635 104.84 276.659 105.4C275.699 105.96 274.635 106.24 273.467 106.24C272.299 106.24 271.227 105.96 270.251 105.4C269.291 104.84 268.531 104.064 267.971 103.072C267.411 102.08 267.131 100.96 267.131 99.712C267.131 98.464 267.411 97.336 267.971 96.328C268.531 95.32 269.291 94.536 270.251 93.976C271.227 93.416 272.299 93.136 273.467 93.136C274.635 93.136 275.699 93.416 276.659 93.976C277.635 94.536 278.403 95.32 278.963 96.328C279.523 97.336 279.803 98.464 279.803 99.712ZM277.523 99.712C277.523 98.848 277.339 98.08 276.971 97.408C276.619 96.72 276.131 96.192 275.507 95.824C274.899 95.44 274.219 95.248 273.467 95.248C272.715 95.248 272.027 95.44 271.403 95.824C270.795 96.192 270.307 96.72 269.939 97.408C269.587 98.08 269.411 98.848 269.411 99.712C269.411 100.56 269.587 101.32 269.939 101.992C270.307 102.664 270.795 103.192 271.403 103.576C272.027 103.944 272.715 104.128 273.467 104.128C274.219 104.128 274.899 103.944 275.507 103.576C276.131 103.192 276.619 102.664 276.971 101.992C277.339 101.32 277.523 100.56 277.523 99.712Z" fill="white"/>
<path d="M292.654 93.256C292.99 93.256 293.262 93.368 293.47 93.592C293.694 93.8 293.806 94.08 293.806 94.432V104.848C293.806 105.168 293.694 105.44 293.47 105.664C293.262 105.888 292.99 106 292.654 106C292.318 106 292.046 105.896 291.838 105.688C291.63 105.464 291.526 105.184 291.526 104.848V104.224C291.11 104.784 290.542 105.264 289.822 105.664C289.102 106.048 288.326 106.24 287.494 106.24C286.406 106.24 285.414 105.96 284.518 105.4C283.638 104.84 282.942 104.064 282.43 103.072C281.934 102.064 281.686 100.936 281.686 99.688C281.686 98.44 281.934 97.32 282.43 96.328C282.942 95.32 283.638 94.536 284.518 93.976C285.398 93.416 286.366 93.136 287.422 93.136C288.27 93.136 289.054 93.312 289.774 93.664C290.51 94.016 291.094 94.464 291.526 95.008V94.432C291.526 94.096 291.63 93.816 291.838 93.592C292.046 93.368 292.318 93.256 292.654 93.256ZM287.758 104.128C288.51 104.128 289.174 103.936 289.75 103.552C290.342 103.168 290.798 102.64 291.118 101.968C291.454 101.296 291.622 100.536 291.622 99.688C291.622 98.856 291.454 98.104 291.118 97.432C290.798 96.76 290.342 96.232 289.75 95.848C289.174 95.448 288.51 95.248 287.758 95.248C287.006 95.248 286.334 95.44 285.742 95.824C285.166 96.208 284.71 96.736 284.374 97.408C284.054 98.08 283.894 98.84 283.894 99.688C283.894 100.536 284.054 101.296 284.374 101.968C284.71 102.64 285.166 103.168 285.742 103.552C286.334 103.936 287.006 104.128 287.758 104.128Z" fill="white"/>
<path d="M307.396 88.24C307.732 88.24 308.004 88.352 308.212 88.576C308.436 88.784 308.548 89.056 308.548 89.392V104.848C308.548 105.168 308.436 105.44 308.212 105.664C308.004 105.888 307.732 106 307.396 106C307.06 106 306.788 105.896 306.58 105.688C306.372 105.464 306.268 105.184 306.268 104.848V104.176C305.868 104.752 305.3 105.24 304.564 105.64C303.844 106.04 303.068 106.24 302.236 106.24C301.148 106.24 300.164 105.96 299.284 105.4C298.404 104.84 297.708 104.064 297.196 103.072C296.684 102.064 296.428 100.936 296.428 99.688C296.428 98.44 296.676 97.32 297.172 96.328C297.684 95.32 298.38 94.536 299.26 93.976C300.14 93.416 301.108 93.136 302.164 93.136C303.012 93.136 303.796 93.312 304.516 93.664C305.236 94.016 305.82 94.472 306.268 95.032V89.392C306.268 89.056 306.372 88.784 306.58 88.576C306.788 88.352 307.06 88.24 307.396 88.24ZM302.5 104.128C303.252 104.128 303.916 103.936 304.492 103.552C305.084 103.168 305.54 102.64 305.86 101.968C306.196 101.296 306.364 100.536 306.364 99.688C306.364 98.856 306.196 98.104 305.86 97.432C305.54 96.744 305.084 96.208 304.492 95.824C303.916 95.44 303.252 95.248 302.5 95.248C301.748 95.248 301.076 95.44 300.484 95.824C299.908 96.208 299.452 96.744 299.116 97.432C298.796 98.104 298.636 98.856 298.636 99.688C298.636 100.536 298.796 101.296 299.116 101.968C299.452 102.64 299.908 103.168 300.484 103.552C301.076 103.936 301.748 104.128 302.5 104.128Z" fill="white"/>
<path d="M326.362 93.208C329.162 93.208 330.562 94.952 330.562 98.44V104.848C330.562 105.184 330.458 105.464 330.25 105.688C330.042 105.896 329.77 106 329.434 106C329.098 106 328.818 105.888 328.594 105.664C328.386 105.44 328.282 105.168 328.282 104.848V98.464C328.282 96.368 327.402 95.32 325.642 95.32C325.018 95.32 324.45 95.464 323.938 95.752C323.442 96.024 323.05 96.4 322.762 96.88C322.49 97.36 322.354 97.888 322.354 98.464V104.848C322.354 105.168 322.242 105.44 322.018 105.664C321.81 105.888 321.538 106 321.202 106C320.866 106 320.594 105.896 320.386 105.688C320.178 105.464 320.074 105.184 320.074 104.848V98.44C320.074 97.496 319.874 96.744 319.474 96.184C319.074 95.608 318.41 95.32 317.482 95.32C316.538 95.32 315.754 95.624 315.13 96.232C314.522 96.824 314.218 97.56 314.218 98.44V104.848C314.218 105.168 314.106 105.44 313.882 105.664C313.674 105.888 313.402 106 313.066 106C312.73 106 312.458 105.896 312.25 105.688C312.042 105.464 311.938 105.184 311.938 104.848V94.576C311.938 94.256 312.042 93.984 312.25 93.76C312.474 93.536 312.746 93.424 313.066 93.424C313.402 93.424 313.674 93.536 313.882 93.76C314.106 93.984 314.218 94.256 314.218 94.576V95.416C314.634 94.792 315.186 94.272 315.874 93.856C316.578 93.424 317.338 93.208 318.154 93.208C320.138 93.208 321.426 94.088 322.018 95.848C322.37 95.176 322.954 94.568 323.77 94.024C324.586 93.48 325.45 93.208 326.362 93.208Z" fill="white"/>
<path d="M344.17 93.256C344.506 93.256 344.778 93.368 344.986 93.592C345.21 93.8 345.322 94.08 345.322 94.432V104.848C345.322 105.168 345.21 105.44 344.986 105.664C344.778 105.888 344.506 106 344.17 106C343.834 106 343.562 105.896 343.354 105.688C343.146 105.464 343.042 105.184 343.042 104.848V104.224C342.626 104.784 342.058 105.264 341.338 105.664C340.618 106.048 339.842 106.24 339.01 106.24C337.922 106.24 336.93 105.96 336.034 105.4C335.154 104.84 334.458 104.064 333.946 103.072C333.45 102.064 333.202 100.936 333.202 99.688C333.202 98.44 333.45 97.32 333.946 96.328C334.458 95.32 335.154 94.536 336.034 93.976C336.914 93.416 337.882 93.136 338.938 93.136C339.786 93.136 340.57 93.312 341.29 93.664C342.026 94.016 342.61 94.464 343.042 95.008V94.432C343.042 94.096 343.146 93.816 343.354 93.592C343.562 93.368 343.834 93.256 344.17 93.256ZM339.274 104.128C340.026 104.128 340.69 103.936 341.266 103.552C341.858 103.168 342.314 102.64 342.634 101.968C342.97 101.296 343.138 100.536 343.138 99.688C343.138 98.856 342.97 98.104 342.634 97.432C342.314 96.76 341.858 96.232 341.266 95.848C340.69 95.448 340.026 95.248 339.274 95.248C338.522 95.248 337.85 95.44 337.258 95.824C336.682 96.208 336.226 96.736 335.89 97.408C335.57 98.08 335.41 98.84 335.41 99.688C335.41 100.536 335.57 101.296 335.89 101.968C336.226 102.64 336.682 103.168 337.258 103.552C337.85 103.936 338.522 104.128 339.274 104.128Z" fill="white"/>
<path d="M355.024 93.208C356.112 93.208 357.096 93.488 357.976 94.048C358.856 94.592 359.544 95.36 360.04 96.352C360.552 97.344 360.808 98.464 360.808 99.712C360.808 100.96 360.552 102.08 360.04 103.072C359.544 104.048 358.856 104.816 357.976 105.376C357.096 105.936 356.128 106.216 355.072 106.216C354.24 106.216 353.464 106.032 352.744 105.664C352.024 105.296 351.44 104.848 350.992 104.32V109.648C350.992 109.968 350.88 110.24 350.656 110.464C350.448 110.688 350.176 110.8 349.84 110.8C349.52 110.8 349.248 110.688 349.024 110.464C348.816 110.256 348.712 109.984 348.712 109.648V94.552C348.712 94.216 348.816 93.936 349.024 93.712C349.232 93.488 349.504 93.376 349.84 93.376C350.176 93.376 350.448 93.488 350.656 93.712C350.88 93.936 350.992 94.216 350.992 94.552V95.248C351.376 94.688 351.936 94.208 352.672 93.808C353.408 93.408 354.192 93.208 355.024 93.208ZM354.76 104.104C355.496 104.104 356.16 103.912 356.752 103.528C357.344 103.144 357.8 102.624 358.12 101.968C358.456 101.296 358.624 100.544 358.624 99.712C358.624 98.88 358.456 98.136 358.12 97.48C357.8 96.808 357.344 96.28 356.752 95.896C356.16 95.512 355.496 95.32 354.76 95.32C354.008 95.32 353.336 95.512 352.744 95.896C352.152 96.264 351.688 96.784 351.352 97.456C351.032 98.128 350.872 98.88 350.872 99.712C350.872 100.544 351.032 101.296 351.352 101.968C351.688 102.64 352.152 103.168 352.744 103.552C353.336 103.92 354.008 104.104 354.76 104.104Z" fill="white"/>
<rect x="434.5" y="76.5" width="137" height="41" rx="20.5" stroke="white"/>
<path d="M454.091 94H471" stroke="white" stroke-width="2" stroke-linecap="round" stroke-linejoin="round"/>
<path d="M466.5 88.75L463.5 105.25" stroke="white" stroke-width="2" stroke-linecap="round" stroke-linejoin="round"/>
<path d="M460.5 88.75L457.5 105.25" stroke="white" stroke-width="2" stroke-linecap="round" stroke-linejoin="round"/>
<path d="M453 100H469.909" stroke="white" stroke-width="2" stroke-linecap="round" stroke-linejoin="round"/>
<path d="M54.712 89.2C55.56 89.2 56.344 89.432 57.064 89.896C57.784 90.344 58.352 90.96 58.768 91.744C59.2 92.528 59.416 93.392 59.416 94.336C59.416 95.28 59.2 96.152 58.768 96.952C58.352 97.752 57.784 98.384 57.064 98.848C56.344 99.312 55.56 99.544 54.712 99.544H50.2V104.848C50.2 105.168 50.096 105.44 49.888 105.664C49.68 105.888 49.416 106 49.096 106C48.76 106 48.488 105.896 48.28 105.688C48.088 105.464 47.992 105.184 47.992 104.848V90.352C47.992 90.032 48.104 89.76 48.328 89.536C48.552 89.312 48.824 89.2 49.144 89.2H54.712ZM54.712 97.36C55.144 97.36 55.544 97.224 55.912 96.952C56.28 96.664 56.568 96.288 56.776 95.824C57 95.36 57.112 94.864 57.112 94.336C57.112 93.52 56.872 92.832 56.392 92.272C55.928 91.696 55.368 91.408 54.712 91.408H50.2V97.36H54.712Z" fill="white"/>
<path d="M68.3586 93.136C68.7746 93.136 69.1346 93.248 69.4386 93.472C69.7426 93.68 69.8946 93.944 69.8946 94.264C69.8946 94.648 69.7906 94.944 69.5826 95.152C69.3906 95.344 69.1506 95.44 68.8626 95.44C68.7186 95.44 68.5026 95.392 68.2146 95.296C67.8786 95.184 67.6146 95.128 67.4226 95.128C66.9266 95.128 66.4386 95.304 65.9586 95.656C65.4946 95.992 65.1106 96.464 64.8066 97.072C64.5186 97.664 64.3746 98.328 64.3746 99.064V104.848C64.3746 105.168 64.2626 105.44 64.0386 105.664C63.8306 105.888 63.5586 106 63.2226 106C62.8866 106 62.6146 105.896 62.4066 105.688C62.1986 105.464 62.0946 105.184 62.0946 104.848V94.576C62.0946 94.256 62.1986 93.984 62.4066 93.76C62.6306 93.536 62.9026 93.424 63.2226 93.424C63.5586 93.424 63.8306 93.536 64.0386 93.76C64.2626 93.984 64.3746 94.256 64.3746 94.576V95.8C64.7266 95.016 65.2546 94.384 65.9586 93.904C66.6626 93.408 67.4626 93.152 68.3586 93.136Z" fill="white"/>
<path d="M83.3736 99.712C83.3736 100.96 83.0936 102.08 82.5336 103.072C81.9736 104.064 81.2056 104.84 80.2296 105.4C79.2696 105.96 78.2056 106.24 77.0376 106.24C75.8696 106.24 74.7976 105.96 73.8216 105.4C72.8616 104.84 72.1016 104.064 71.5416 103.072C70.9816 102.08 70.7016 100.96 70.7016 99.712C70.7016 98.464 70.9816 97.336 71.5416 96.328C72.1016 95.32 72.8616 94.536 73.8216 93.976C74.7976 93.416 75.8696 93.136 77.0376 93.136C78.2056 93.136 79.2696 93.416 80.2296 93.976C81.2056 94.536 81.9736 95.32 82.5336 96.328C83.0936 97.336 83.3736 98.464 83.3736 99.712ZM81.0936 99.712C81.0936 98.848 80.9096 98.08 80.5416 97.408C80.1896 96.72 79.7016 96.192 79.0776 95.824C78.4696 95.44 77.7896 95.248 77.0376 95.248C76.2856 95.248 75.5976 95.44 74.9736 95.824C74.3656 96.192 73.8776 96.72 73.5096 97.408C73.1576 98.08 72.9816 98.848 72.9816 99.712C72.9816 100.56 73.1576 101.32 73.5096 101.992C73.8776 102.664 74.3656 103.192 74.9736 103.576C75.5976 103.944 76.2856 104.128 77.0376 104.128C77.7896 104.128 78.4696 103.944 79.0776 103.576C79.7016 103.192 80.1896 102.664 80.5416 101.992C80.9096 101.32 81.0936 100.56 81.0936 99.712Z" fill="white"/>
<path d="M96.2243 88.24C96.5603 88.24 96.8323 88.352 97.0403 88.576C97.2643 88.784 97.3763 89.056 97.3763 89.392V104.848C97.3763 105.168 97.2643 105.44 97.0403 105.664C96.8323 105.888 96.5603 106 96.2243 106C95.8883 106 95.6163 105.896 95.4083 105.688C95.2003 105.464 95.0963 105.184 95.0963 104.848V104.176C94.6963 104.752 94.1283 105.24 93.3923 105.64C92.6723 106.04 91.8963 106.24 91.0643 106.24C89.9763 106.24 88.9923 105.96 88.1123 105.4C87.2323 104.84 86.5363 104.064 86.0243 103.072C85.5123 102.064 85.2563 100.936 85.2563 99.688C85.2563 98.44 85.5043 97.32 86.0003 96.328C86.5123 95.32 87.2083 94.536 88.0883 93.976C88.9683 93.416 89.9363 93.136 90.9923 93.136C91.8403 93.136 92.6243 93.312 93.3443 93.664C94.0643 94.016 94.6483 94.472 95.0963 95.032V89.392C95.0963 89.056 95.2003 88.784 95.4083 88.576C95.6163 88.352 95.8883 88.24 96.2243 88.24ZM91.3283 104.128C92.0803 104.128 92.7443 103.936 93.3203 103.552C93.9123 103.168 94.3683 102.64 94.6883 101.968C95.0243 101.296 95.1923 100.536 95.1923 99.688C95.1923 98.856 95.0243 98.104 94.6883 97.432C94.3683 96.744 93.9123 96.208 93.3203 95.824C92.7443 95.44 92.0803 95.248 91.3283 95.248C90.5763 95.248 89.9043 95.44 89.3123 95.824C88.7363 96.208 88.2803 96.744 87.9443 97.432C87.6243 98.104 87.4643 98.856 87.4643 99.688C87.4643 100.536 87.6243 101.296 87.9443 101.968C88.2803 102.64 88.7363 103.168 89.3123 103.552C89.9043 103.936 90.5763 104.128 91.3283 104.128Z" fill="white"/>
<path d="M110.502 93.424C110.838 93.424 111.11 93.536 111.318 93.76C111.542 93.984 111.654 94.256 111.654 94.576V100.96C111.654 102.624 111.19 103.92 110.262 104.848C109.35 105.76 108.054 106.216 106.374 106.216C104.71 106.216 103.422 105.76 102.51 104.848C101.598 103.92 101.142 102.624 101.142 100.96V94.576C101.142 94.256 101.246 93.984 101.454 93.76C101.678 93.536 101.95 93.424 102.27 93.424C102.606 93.424 102.878 93.536 103.086 93.76C103.31 93.984 103.422 94.256 103.422 94.576V100.96C103.422 103.056 104.406 104.104 106.374 104.104C107.35 104.104 108.094 103.84 108.606 103.312C109.118 102.784 109.374 102 109.374 100.96V94.576C109.374 94.256 109.478 93.984 109.686 93.76C109.91 93.536 110.182 93.424 110.502 93.424Z" fill="white"/>
<path d="M120.535 93.136C121.799 93.136 122.847 93.336 123.679 93.736C124.527 94.136 124.951 94.648 124.951 95.272C124.951 95.544 124.863 95.792 124.687 96.016C124.511 96.224 124.287 96.328 124.015 96.328C123.807 96.328 123.639 96.296 123.511 96.232C123.399 96.168 123.239 96.064 123.031 95.92C122.935 95.824 122.783 95.712 122.575 95.584C122.383 95.488 122.111 95.408 121.759 95.344C121.407 95.28 121.087 95.248 120.799 95.248C119.967 95.248 119.231 95.44 118.591 95.824C117.951 96.208 117.455 96.744 117.103 97.432C116.751 98.104 116.575 98.856 116.575 99.688C116.575 100.536 116.743 101.296 117.079 101.968C117.431 102.64 117.919 103.168 118.543 103.552C119.167 103.936 119.879 104.128 120.679 104.128C121.511 104.128 122.183 104 122.695 103.744C122.807 103.68 122.959 103.576 123.151 103.432C123.311 103.304 123.447 103.208 123.559 103.144C123.687 103.08 123.839 103.048 124.015 103.048C124.335 103.048 124.583 103.152 124.759 103.36C124.951 103.552 125.047 103.808 125.047 104.128C125.047 104.464 124.831 104.8 124.399 105.136C123.983 105.456 123.415 105.72 122.695 105.928C121.991 106.136 121.231 106.24 120.415 106.24C119.199 106.24 118.127 105.96 117.199 105.4C116.271 104.824 115.551 104.04 115.039 103.048C114.543 102.04 114.295 100.92 114.295 99.688C114.295 98.456 114.559 97.344 115.087 96.352C115.615 95.344 116.351 94.56 117.295 94C118.239 93.424 119.319 93.136 120.535 93.136Z" fill="white"/>
<path d="M130.8 95.656V102.808C130.8 103.608 131.16 104.008 131.88 104.008C131.992 104.008 132.144 103.984 132.336 103.936C132.528 103.872 132.68 103.84 132.792 103.84C133 103.84 133.176 103.928 133.32 104.104C133.464 104.28 133.536 104.504 133.536 104.776C133.536 105.112 133.344 105.4 132.96 105.64C132.576 105.88 132.144 106 131.664 106C131.136 106 130.648 105.944 130.2 105.832C129.768 105.72 129.376 105.44 129.024 104.992C128.688 104.528 128.52 103.832 128.52 102.904V95.656H127.128C126.824 95.656 126.568 95.56 126.36 95.368C126.168 95.16 126.072 94.904 126.072 94.6C126.072 94.296 126.168 94.048 126.36 93.856C126.568 93.664 126.824 93.568 127.128 93.568H128.52V91.552C128.52 91.232 128.624 90.96 128.832 90.736C129.056 90.512 129.336 90.4 129.672 90.4C129.992 90.4 130.256 90.512 130.464 90.736C130.688 90.96 130.8 91.232 130.8 91.552V93.568H132.792C133.096 93.568 133.344 93.672 133.536 93.88C133.744 94.072 133.848 94.32 133.848 94.624C133.848 94.928 133.744 95.176 133.536 95.368C133.344 95.56 133.096 95.656 132.792 95.656H130.8Z" fill="white"/>
<path d="M123.712 1.19999C124.56 1.19999 125.344 1.43199 126.064 1.89599C126.784 2.34399 127.352 2.95999 127.768 3.74399C128.2 4.52799 128.416 5.39199 128.416 6.33599C128.416 7.27999 128.2 8.15199 127.768 8.95199C127.352 9.75199 126.784 10.384 126.064 10.848C125.344 11.312 124.56 11.544 123.712 11.544H119.2V16.848C119.2 17.168 119.096 17.44 118.888 17.664C118.68 17.888 118.416 18 118.096 18C117.76 18 117.488 17.896 117.28 17.688C117.088 17.464 116.992 17.184 116.992 16.848V2.35199C116.992 2.03199 117.104 1.75999 117.328 1.53599C117.552 1.31199 117.824 1.19999 118.144 1.19999H123.712ZM123.712 9.35999C124.144 9.35999 124.544 9.22399 124.912 8.95199C125.28 8.66399 125.568 8.28799 125.776 7.82399C126 7.35999 126.112 6.86399 126.112 6.33599C126.112 5.51999 125.872 4.83199 125.392 4.27199C124.928 3.69599 124.368 3.40799 123.712 3.40799H119.2V9.35999H123.712Z" fill="white"/>
<path d="M137.359 5.13599C137.775 5.13599 138.135 5.24799 138.439 5.47199C138.743 5.67999 138.895 5.94399 138.895 6.26399C138.895 6.64799 138.791 6.94399 138.583 7.15199C138.391 7.34399 138.151 7.43999 137.863 7.43999C137.719 7.43999 137.503 7.39199 137.215 7.29599C136.879 7.18399 136.615 7.12799 136.423 7.12799C135.927 7.12799 135.439 7.30399 134.959 7.65599C134.495 7.99199 134.111 8.46399 133.807 9.07199C133.519 9.66399 133.375 10.328 133.375 11.064V16.848C133.375 17.168 133.263 17.44 133.039 17.664C132.831 17.888 132.559 18 132.223 18C131.887 18 131.615 17.896 131.407 17.688C131.199 17.464 131.095 17.184 131.095 16.848V6.57599C131.095 6.25599 131.199 5.98399 131.407 5.75999C131.631 5.53599 131.903 5.42399 132.223 5.42399C132.559 5.42399 132.831 5.53599 133.039 5.75999C133.263 5.98399 133.375 6.25599 133.375 6.57599V7.79999C133.727 7.01599 134.255 6.38399 134.959 5.90399C135.663 5.40799 136.463 5.15199 137.359 5.13599Z" fill="white"/>
<path d="M152.374 11.712C152.374 12.96 152.094 14.08 151.534 15.072C150.974 16.064 150.206 16.84 149.23 17.4C148.27 17.96 147.206 18.24 146.038 18.24C144.87 18.24 143.798 17.96 142.822 17.4C141.862 16.84 141.102 16.064 140.542 15.072C139.982 14.08 139.702 12.96 139.702 11.712C139.702 10.464 139.982 9.33599 140.542 8.32799C141.102 7.31999 141.862 6.53599 142.822 5.97599C143.798 5.41599 144.87 5.13599 146.038 5.13599C147.206 5.13599 148.27 5.41599 149.23 5.97599C150.206 6.53599 150.974 7.31999 151.534 8.32799C152.094 9.33599 152.374 10.464 152.374 11.712ZM150.094 11.712C150.094 10.848 149.91 10.08 149.542 9.40799C149.19 8.71999 148.702 8.19199 148.078 7.82399C147.47 7.43999 146.79 7.24799 146.038 7.24799C145.286 7.24799 144.598 7.43999 143.974 7.82399C143.366 8.19199 142.878 8.71999 142.51 9.40799C142.158 10.08 141.982 10.848 141.982 11.712C141.982 12.56 142.158 13.32 142.51 13.992C142.878 14.664 143.366 15.192 143.974 15.576C144.598 15.944 145.286 16.128 146.038 16.128C146.79 16.128 147.47 15.944 148.078 15.576C148.702 15.192 149.19 14.664 149.542 13.992C149.91 13.32 150.094 12.56 150.094 11.712Z" fill="white"/>
<path d="M165.224 0.23999C165.56 0.23999 165.832 0.35199 166.04 0.57599C166.264 0.783989 166.376 1.05599 166.376 1.39199V16.848C166.376 17.168 166.264 17.44 166.04 17.664C165.832 17.888 165.56 18 165.224 18C164.888 18 164.616 17.896 164.408 17.688C164.2 17.464 164.096 17.184 164.096 16.848V16.176C163.696 16.752 163.128 17.24 162.392 17.64C161.672 18.04 160.896 18.24 160.064 18.24C158.976 18.24 157.992 17.96 157.112 17.4C156.232 16.84 155.536 16.064 155.024 15.072C154.512 14.064 154.256 12.936 154.256 11.688C154.256 10.44 154.504 9.31999 155 8.32799C155.512 7.31999 156.208 6.53599 157.088 5.97599C157.968 5.41599 158.936 5.13599 159.992 5.13599C160.84 5.13599 161.624 5.31199 162.344 5.66399C163.064 6.01599 163.648 6.47199 164.096 7.03199V1.39199C164.096 1.05599 164.2 0.783989 164.408 0.57599C164.616 0.35199 164.888 0.23999 165.224 0.23999ZM160.328 16.128C161.08 16.128 161.744 15.936 162.32 15.552C162.912 15.168 163.368 14.64 163.688 13.968C164.024 13.296 164.192 12.536 164.192 11.688C164.192 10.856 164.024 10.104 163.688 9.43199C163.368 8.74399 162.912 8.20799 162.32 7.82399C161.744 7.43999 161.08 7.24799 160.328 7.24799C159.576 7.24799 158.904 7.43999 158.312 7.82399C157.736 8.20799 157.28 8.74399 156.944 9.43199C156.624 10.104 156.464 10.856 156.464 11.688C156.464 12.536 156.624 13.296 156.944 13.968C157.28 14.64 157.736 15.168 158.312 15.552C158.904 15.936 159.576 16.128 160.328 16.128Z" fill="white"/>
<path d="M179.502 5.42399C179.838 5.42399 180.11 5.53599 180.318 5.75999C180.542 5.98399 180.654 6.25599 180.654 6.57599V12.96C180.654 14.624 180.19 15.92 179.262 16.848C178.35 17.76 177.054 18.216 175.374 18.216C173.71 18.216 172.422 17.76 171.51 16.848C170.598 15.92 170.142 14.624 170.142 12.96V6.57599C170.142 6.25599 170.246 5.98399 170.454 5.75999C170.678 5.53599 170.95 5.42399 171.27 5.42399C171.606 5.42399 171.878 5.53599 172.086 5.75999C172.31 5.98399 172.422 6.25599 172.422 6.57599V12.96C172.422 15.056 173.406 16.104 175.374 16.104C176.35 16.104 177.093 15.84 177.605 15.312C178.117 14.784 178.374 14 178.374 12.96V6.57599C178.374 6.25599 178.478 5.98399 178.686 5.75999C178.91 5.53599 179.182 5.42399 179.502 5.42399Z" fill="white"/>
<path d="M189.535 5.13599C190.799 5.13599 191.847 5.33599 192.679 5.73599C193.527 6.13599 193.951 6.64799 193.951 7.27199C193.951 7.54399 193.863 7.79199 193.687 8.01599C193.511 8.22399 193.287 8.32799 193.015 8.32799C192.807 8.32799 192.639 8.29599 192.511 8.23199C192.399 8.16799 192.239 8.06399 192.031 7.91999C191.935 7.82399 191.783 7.71199 191.575 7.58399C191.383 7.48799 191.111 7.40799 190.759 7.34399C190.407 7.27999 190.087 7.24799 189.799 7.24799C188.967 7.24799 188.231 7.43999 187.591 7.82399C186.951 8.20799 186.455 8.74399 186.103 9.43199C185.751 10.104 185.575 10.856 185.575 11.688C185.575 12.536 185.743 13.296 186.079 13.968C186.431 14.64 186.919 15.168 187.543 15.552C188.167 15.936 188.879 16.128 189.679 16.128C190.511 16.128 191.183 16 191.695 15.744C191.807 15.68 191.959 15.576 192.151 15.432C192.311 15.304 192.447 15.208 192.559 15.144C192.687 15.08 192.839 15.048 193.015 15.048C193.335 15.048 193.583 15.152 193.759 15.36C193.951 15.552 194.047 15.808 194.047 16.128C194.047 16.464 193.831 16.8 193.399 17.136C192.983 17.456 192.415 17.72 191.695 17.928C190.991 18.136 190.231 18.24 189.415 18.24C188.199 18.24 187.127 17.96 186.199 17.4C185.271 16.824 184.551 16.04 184.039 15.048C183.543 14.04 183.295 12.92 183.295 11.688C183.295 10.456 183.559 9.34399 184.087 8.35199C184.615 7.34399 185.351 6.55999 186.295 5.99999C187.239 5.42399 188.319 5.13599 189.535 5.13599Z" fill="white"/>
<path d="M199.799 7.65599V14.808C199.799 15.608 200.16 16.008 200.88 16.008C200.992 16.008 201.144 15.984 201.336 15.936C201.528 15.872 201.68 15.84 201.792 15.84C202 15.84 202.176 15.928 202.32 16.104C202.464 16.28 202.536 16.504 202.536 16.776C202.536 17.112 202.344 17.4 201.96 17.64C201.576 17.88 201.143 18 200.663 18C200.135 18 199.648 17.944 199.2 17.832C198.768 17.72 198.375 17.44 198.023 16.992C197.687 16.528 197.52 15.832 197.52 14.904V7.65599H196.128C195.824 7.65599 195.567 7.55999 195.359 7.36799C195.167 7.15999 195.072 6.90399 195.072 6.59999C195.072 6.29599 195.167 6.04799 195.359 5.85599C195.567 5.66399 195.824 5.56799 196.128 5.56799H197.52V3.55199C197.52 3.23199 197.623 2.95999 197.831 2.73599C198.055 2.51199 198.336 2.39999 198.672 2.39999C198.992 2.39999 199.256 2.51199 199.464 2.73599C199.688 2.95999 199.799 3.23199 199.799 3.55199V5.56799H201.792C202.096 5.56799 202.344 5.67199 202.536 5.87999C202.744 6.07199 202.848 6.31999 202.848 6.62399C202.848 6.92799 202.744 7.17599 202.536 7.36799C202.344 7.55999 202.096 7.65599 201.792 7.65599H199.799Z" fill="white"/>
<path d="M223.349 1.19999C223.685 1.19999 223.957 1.30399 224.165 1.51199C224.389 1.70399 224.501 1.96799 224.501 2.30399C224.501 2.63999 224.389 2.90399 224.165 3.09599C223.957 3.28799 223.685 3.38399 223.349 3.38399H219.077V16.848C219.077 17.168 218.957 17.44 218.717 17.664C218.493 17.888 218.205 18 217.853 18C217.501 18 217.205 17.888 216.965 17.664C216.741 17.44 216.629 17.168 216.629 16.848V3.38399H212.381C212.045 3.38399 211.765 3.28799 211.541 3.09599C211.333 2.88799 211.229 2.61599 211.229 2.27999C211.229 1.95999 211.333 1.70399 211.541 1.51199C211.765 1.30399 212.045 1.19999 212.381 1.19999H223.349Z" fill="white"/>
<path d="M235.135 11.232C235.119 11.52 234.999 11.768 234.775 11.976C234.551 12.168 234.287 12.264 233.983 12.264H225.535C225.647 13.432 226.087 14.368 226.855 15.072C227.639 15.776 228.591 16.128 229.711 16.128C230.479 16.128 231.103 16.016 231.583 15.792C232.063 15.568 232.487 15.28 232.855 14.928C233.095 14.784 233.327 14.712 233.551 14.712C233.823 14.712 234.047 14.808 234.223 15C234.415 15.192 234.511 15.416 234.511 15.672C234.511 16.008 234.351 16.312 234.031 16.584C233.567 17.048 232.951 17.44 232.183 17.76C231.415 18.08 230.631 18.24 229.831 18.24C228.535 18.24 227.391 17.968 226.399 17.424C225.423 16.88 224.663 16.12 224.119 15.144C223.591 14.168 223.327 13.064 223.327 11.832C223.327 10.488 223.599 9.31199 224.143 8.30399C224.703 7.27999 225.431 6.49599 226.327 5.95199C227.239 5.40799 228.215 5.13599 229.255 5.13599C230.279 5.13599 231.239 5.39999 232.135 5.92799C233.031 6.45599 233.751 7.18399 234.295 8.11199C234.839 9.03999 235.119 10.08 235.135 11.232ZM229.255 7.24799C228.359 7.24799 227.583 7.50399 226.927 8.01599C226.271 8.51199 225.839 9.28799 225.631 10.344H232.711V10.152C232.631 9.30399 232.247 8.60799 231.559 8.06399C230.887 7.51999 230.119 7.24799 229.255 7.24799Z" fill="white"/>
<path d="M248.076 5.25599C248.412 5.25599 248.684 5.36799 248.892 5.59199C249.116 5.79999 249.228 6.07999 249.228 6.43199V16.848C249.228 17.168 249.116 17.44 248.892 17.664C248.684 17.888 248.412 18 248.076 18C247.74 18 247.468 17.896 247.26 17.688C247.052 17.464 246.948 17.184 246.948 16.848V16.224C246.532 16.784 245.964 17.264 245.244 17.664C244.524 18.048 243.748 18.24 242.916 18.24C241.828 18.24 240.836 17.96 239.94 17.4C239.06 16.84 238.364 16.064 237.852 15.072C237.356 14.064 237.108 12.936 237.108 11.688C237.108 10.44 237.356 9.31999 237.852 8.32799C238.364 7.31999 239.06 6.53599 239.94 5.97599C240.82 5.41599 241.788 5.13599 242.844 5.13599C243.692 5.13599 244.476 5.31199 245.196 5.66399C245.932 6.01599 246.516 6.46399 246.948 7.00799V6.43199C246.948 6.09599 247.052 5.81599 247.26 5.59199C247.468 5.36799 247.74 5.25599 248.076 5.25599ZM243.18 16.128C243.932 16.128 244.596 15.936 245.172 15.552C245.764 15.168 246.22 14.64 246.54 13.968C246.876 13.296 247.044 12.536 247.044 11.688C247.044 10.856 246.876 10.104 246.54 9.43199C246.22 8.75999 245.764 8.23199 245.172 7.84799C244.596 7.44799 243.932 7.24799 243.18 7.24799C242.428 7.24799 241.756 7.43999 241.164 7.82399C240.588 8.20799 240.132 8.73599 239.796 9.40799C239.476 10.08 239.316 10.84 239.316 11.688C239.316 12.536 239.476 13.296 239.796 13.968C240.132 14.64 240.588 15.168 241.164 15.552C241.756 15.936 242.428 16.128 243.18 16.128Z" fill="white"/>
<path d="M267.042 5.20799C269.842 5.20799 271.242 6.95199 271.242 10.44V16.848C271.242 17.184 271.138 17.464 270.93 17.688C270.722 17.896 270.45 18 270.114 18C269.778 18 269.498 17.888 269.274 17.664C269.066 17.44 268.962 17.168 268.962 16.848V10.464C268.962 8.36799 268.082 7.31999 266.322 7.31999C265.698 7.31999 265.13 7.46399 264.618 7.75199C264.122 8.02399 263.73 8.39999 263.442 8.87999C263.17 9.35999 263.034 9.88799 263.034 10.464V16.848C263.034 17.168 262.922 17.44 262.698 17.664C262.49 17.888 262.218 18 261.882 18C261.546 18 261.274 17.896 261.066 17.688C260.858 17.464 260.754 17.184 260.754 16.848V10.44C260.754 9.49599 260.554 8.74399 260.154 8.18399C259.754 7.60799 259.09 7.31999 258.162 7.31999C257.218 7.31999 256.434 7.62399 255.81 8.23199C255.202 8.82399 254.898 9.55999 254.898 10.44V16.848C254.898 17.168 254.786 17.44 254.562 17.664C254.354 17.888 254.082 18 253.746 18C253.41 18 253.138 17.896 252.93 17.688C252.722 17.464 252.618 17.184 252.618 16.848V6.57599C252.618 6.25599 252.722 5.98399 252.93 5.75999C253.154 5.53599 253.426 5.42399 253.746 5.42399C254.082 5.42399 254.354 5.53599 254.562 5.75999C254.786 5.98399 254.898 6.25599 254.898 6.57599V7.41599C255.314 6.79199 255.866 6.27199 256.554 5.85599C257.258 5.42399 258.018 5.20799 258.834 5.20799C260.818 5.20799 262.106 6.08799 262.698 7.84799C263.05 7.17599 263.634 6.56799 264.45 6.02399C265.266 5.47999 266.13 5.20799 267.042 5.20799Z" fill="white"/>
<path d="M398.048 1.19999C399.552 1.19999 400.84 1.57599 401.912 2.32799C402.984 3.07999 403.792 4.09599 404.336 5.37599C404.88 6.63999 405.152 8.04799 405.152 9.59999C405.152 11.168 404.88 12.592 404.336 13.872C403.792 15.136 402.984 16.144 401.912 16.896C400.84 17.632 399.552 18 398.048 18H392.144C391.824 18 391.552 17.888 391.328 17.664C391.104 17.44 390.992 17.168 390.992 16.848V2.35199C390.992 2.03199 391.104 1.75999 391.328 1.53599C391.552 1.31199 391.824 1.19999 392.144 1.19999H398.048ZM397.808 15.792C399.44 15.792 400.664 15.216 401.48 14.064C402.296 12.896 402.704 11.408 402.704 9.59999C402.704 7.80799 402.288 6.32799 401.456 5.15999C400.64 3.99199 399.424 3.40799 397.808 3.40799H393.368V15.792H397.808Z" fill="white"/>
<path d="M419.135 11.232C419.119 11.52 418.999 11.768 418.775 11.976C418.551 12.168 418.287 12.264 417.983 12.264H409.535C409.647 13.432 410.087 14.368 410.855 15.072C411.639 15.776 412.591 16.128 413.711 16.128C414.479 16.128 415.103 16.016 415.583 15.792C416.063 15.568 416.487 15.28 416.855 14.928C417.095 14.784 417.327 14.712 417.551 14.712C417.823 14.712 418.047 14.808 418.223 15C418.415 15.192 418.511 15.416 418.511 15.672C418.511 16.008 418.351 16.312 418.031 16.584C417.567 17.048 416.951 17.44 416.183 17.76C415.415 18.08 414.631 18.24 413.831 18.24C412.535 18.24 411.391 17.968 410.399 17.424C409.423 16.88 408.663 16.12 408.119 15.144C407.591 14.168 407.327 13.064 407.327 11.832C407.327 10.488 407.599 9.31199 408.143 8.30399C408.703 7.27999 409.431 6.49599 410.327 5.95199C411.239 5.40799 412.215 5.13599 413.255 5.13599C414.279 5.13599 415.239 5.39999 416.135 5.92799C417.031 6.45599 417.751 7.18399 418.295 8.11199C418.839 9.03999 419.119 10.08 419.135 11.232ZM413.255 7.24799C412.359 7.24799 411.583 7.50399 410.927 8.01599C410.271 8.51199 409.839 9.28799 409.631 10.344H416.711V10.152C416.631 9.30399 416.247 8.60799 415.559 8.06399C414.887 7.51999 414.119 7.24799 413.255 7.24799Z" fill="white"/>
<path d="M421.062 16.032C420.918 15.808 420.846 15.592 420.846 15.384C420.846 15.064 421.014 14.792 421.35 14.568C421.51 14.456 421.694 14.4 421.902 14.4C422.19 14.4 422.454 14.52 422.694 14.76C423.174 15.304 423.686 15.712 424.23 15.984C424.79 16.256 425.454 16.392 426.222 16.392C426.83 16.376 427.366 16.24 427.83 15.984C428.294 15.712 428.526 15.28 428.526 14.688C428.526 14.144 428.286 13.728 427.806 13.44C427.342 13.152 426.654 12.888 425.742 12.648C424.846 12.408 424.102 12.16 423.51 11.904C422.918 11.632 422.414 11.248 421.998 10.752C421.598 10.24 421.398 9.57599 421.398 8.75999C421.398 8.03999 421.598 7.40799 421.998 6.86399C422.414 6.31999 422.958 5.89599 423.63 5.59199C424.318 5.28799 425.062 5.13599 425.862 5.13599C426.63 5.13599 427.39 5.27999 428.142 5.56799C428.91 5.85599 429.534 6.29599 430.014 6.88799C430.206 7.11199 430.302 7.34399 430.302 7.58399C430.302 7.83999 430.174 8.08799 429.918 8.32799C429.758 8.47199 429.558 8.54399 429.318 8.54399C429.03 8.54399 428.798 8.44799 428.622 8.25599C428.286 7.87199 427.87 7.57599 427.374 7.36799C426.894 7.15999 426.358 7.05599 425.766 7.05599C425.158 7.05599 424.638 7.18399 424.206 7.43999C423.79 7.67999 423.582 8.09599 423.582 8.68799C423.598 9.24799 423.838 9.66399 424.302 9.93599C424.782 10.208 425.51 10.472 426.486 10.728C427.334 10.952 428.038 11.192 428.598 11.448C429.158 11.704 429.63 12.088 430.014 12.6C430.398 13.096 430.59 13.752 430.59 14.568C430.59 15.32 430.374 15.976 429.942 16.536C429.51 17.08 428.942 17.504 428.238 17.808C427.55 18.096 426.814 18.24 426.03 18.24C425.022 18.24 424.086 18.064 423.222 17.712C422.374 17.36 421.654 16.8 421.062 16.032Z" fill="white"/>
<path d="M435.38 16.848C435.38 17.168 435.268 17.44 435.044 17.664C434.836 17.888 434.564 18 434.228 18C433.908 18 433.636 17.888 433.412 17.664C433.204 17.44 433.1 17.168 433.1 16.848V6.45599C433.1 6.13599 433.204 5.86399 433.412 5.63999C433.636 5.41599 433.908 5.30399 434.228 5.30399C434.564 5.30399 434.836 5.41599 435.044 5.63999C435.268 5.86399 435.38 6.13599 435.38 6.45599V16.848ZM434.228 3.71999C433.764 3.71999 433.428 3.63999 433.22 3.47999C433.028 3.30399 432.932 3.03199 432.932 2.66399V2.27999C432.932 1.89599 433.036 1.62399 433.244 1.46399C433.468 1.30399 433.804 1.22399 434.252 1.22399C434.7 1.22399 435.02 1.31199 435.212 1.48799C435.42 1.64799 435.524 1.91199 435.524 2.27999V2.66399C435.524 3.04799 435.42 3.31999 435.212 3.47999C435.004 3.63999 434.676 3.71999 434.228 3.71999Z" fill="white"/>
<path d="M449.169 5.25599C449.505 5.25599 449.777 5.36799 449.985 5.59199C450.209 5.79999 450.321 6.07999 450.321 6.43199V16.992C450.321 18.288 450.041 19.368 449.481 20.232C448.937 21.112 448.193 21.76 447.249 22.176C446.305 22.592 445.241 22.8 444.057 22.8C443.417 22.8 442.665 22.688 441.801 22.464C440.953 22.24 440.409 22.008 440.169 21.768C439.673 21.512 439.425 21.192 439.425 20.808C439.425 20.712 439.457 20.584 439.521 20.424C439.697 20.024 439.993 19.824 440.409 19.824C440.617 19.824 440.841 19.872 441.081 19.968C442.361 20.464 443.361 20.712 444.081 20.712C445.361 20.712 446.337 20.4 447.009 19.776C447.697 19.168 448.041 18.328 448.041 17.256V15.96C447.705 16.584 447.137 17.12 446.337 17.568C445.553 18.016 444.721 18.24 443.841 18.24C442.737 18.24 441.729 17.96 440.817 17.4C439.905 16.84 439.185 16.064 438.657 15.072C438.145 14.064 437.889 12.936 437.889 11.688C437.889 10.44 438.145 9.31999 438.657 8.32799C439.185 7.31999 439.897 6.53599 440.793 5.97599C441.705 5.41599 442.705 5.13599 443.793 5.13599C444.673 5.13599 445.489 5.33599 446.241 5.73599C447.009 6.13599 447.609 6.62399 448.041 7.19999V6.43199C448.041 6.09599 448.145 5.81599 448.353 5.59199C448.561 5.36799 448.833 5.25599 449.169 5.25599ZM444.105 16.128C444.889 16.128 445.585 15.944 446.193 15.576C446.801 15.192 447.273 14.664 447.609 13.992C447.961 13.304 448.137 12.536 448.137 11.688C448.137 10.84 447.961 10.08 447.609 9.40799C447.273 8.73599 446.801 8.20799 446.193 7.82399C445.585 7.43999 444.889 7.24799 444.105 7.24799C443.337 7.24799 442.649 7.43999 442.041 7.82399C441.433 8.20799 440.953 8.74399 440.601 9.43199C440.265 10.104 440.097 10.856 440.097 11.688C440.097 12.52 440.265 13.28 440.601 13.968C440.953 14.64 441.433 15.168 442.041 15.552C442.649 15.936 443.337 16.128 444.105 16.128Z" fill="white"/>
<path d="M460.112 5.13599C462.992 5.13599 464.432 6.86399 464.432 10.32V16.848C464.432 17.168 464.32 17.44 464.096 17.664C463.888 17.888 463.616 18 463.28 18C462.96 18 462.688 17.888 462.464 17.664C462.256 17.44 462.152 17.168 462.152 16.848V10.344C462.152 9.39999 461.936 8.64799 461.504 8.08799C461.072 7.52799 460.368 7.24799 459.392 7.24799C458.752 7.24799 458.168 7.39199 457.64 7.67999C457.128 7.95199 456.72 8.32799 456.416 8.80799C456.128 9.27199 455.984 9.78399 455.984 10.344V16.848C455.984 17.168 455.872 17.44 455.648 17.664C455.44 17.888 455.168 18 454.832 18C454.496 18 454.224 17.896 454.016 17.688C453.808 17.464 453.704 17.184 453.704 16.848V6.57599C453.704 6.25599 453.808 5.98399 454.016 5.75999C454.24 5.53599 454.512 5.42399 454.832 5.42399C455.168 5.42399 455.44 5.53599 455.648 5.75999C455.872 5.98399 455.984 6.25599 455.984 6.57599V7.41599C456.4 6.77599 456.976 6.23999 457.712 5.80799C458.464 5.35999 459.264 5.13599 460.112 5.13599Z" fill="white"/>
<path d="M485.677 1.19999C486.013 1.19999 486.285 1.30399 486.493 1.51199C486.717 1.70399 486.829 1.96799 486.829 2.30399C486.829 2.63999 486.717 2.90399 486.493 3.09599C486.285 3.28799 486.013 3.38399 485.677 3.38399H481.405V16.848C481.405 17.168 481.285 17.44 481.045 17.664C480.821 17.888 480.533 18 480.181 18C479.829 18 479.533 17.888 479.293 17.664C479.069 17.44 478.957 17.168 478.957 16.848V3.38399H474.709C474.373 3.38399 474.093 3.28799 473.869 3.09599C473.661 2.88799 473.557 2.61599 473.557 2.27999C473.557 1.95999 473.661 1.70399 473.869 1.51199C474.093 1.30399 474.373 1.19999 474.709 1.19999H485.677Z" fill="white"/>
<path d="M497.463 11.232C497.447 11.52 497.327 11.768 497.103 11.976C496.879 12.168 496.615 12.264 496.311 12.264H487.863C487.975 13.432 488.415 14.368 489.183 15.072C489.967 15.776 490.919 16.128 492.039 16.128C492.807 16.128 493.431 16.016 493.911 15.792C494.391 15.568 494.815 15.28 495.183 14.928C495.423 14.784 495.655 14.712 495.879 14.712C496.151 14.712 496.375 14.808 496.551 15C496.743 15.192 496.839 15.416 496.839 15.672C496.839 16.008 496.679 16.312 496.359 16.584C495.895 17.048 495.279 17.44 494.511 17.76C493.743 18.08 492.959 18.24 492.159 18.24C490.863 18.24 489.719 17.968 488.727 17.424C487.751 16.88 486.991 16.12 486.447 15.144C485.919 14.168 485.655 13.064 485.655 11.832C485.655 10.488 485.927 9.31199 486.471 8.30399C487.031 7.27999 487.759 6.49599 488.655 5.95199C489.567 5.40799 490.543 5.13599 491.583 5.13599C492.607 5.13599 493.567 5.39999 494.463 5.92799C495.359 6.45599 496.079 7.18399 496.623 8.11199C497.167 9.03999 497.447 10.08 497.463 11.232ZM491.583 7.24799C490.687 7.24799 489.911 7.50399 489.255 8.01599C488.599 8.51199 488.167 9.28799 487.959 10.344H495.039V10.152C494.959 9.30399 494.575 8.60799 493.887 8.06399C493.215 7.51999 492.447 7.24799 491.583 7.24799Z" fill="white"/>
<path d="M510.404 5.25599C510.74 5.25599 511.012 5.36799 511.22 5.59199C511.444 5.79999 511.556 6.07999 511.556 6.43199V16.848C511.556 17.168 511.444 17.44 511.22 17.664C511.012 17.888 510.74 18 510.404 18C510.068 18 509.796 17.896 509.588 17.688C509.38 17.464 509.276 17.184 509.276 16.848V16.224C508.86 16.784 508.292 17.264 507.572 17.664C506.852 18.048 506.076 18.24 505.244 18.24C504.156 18.24 503.164 17.96 502.268 17.4C501.388 16.84 500.692 16.064 500.18 15.072C499.684 14.064 499.436 12.936 499.436 11.688C499.436 10.44 499.684 9.31999 500.18 8.32799C500.692 7.31999 501.388 6.53599 502.268 5.97599C503.148 5.41599 504.116 5.13599 505.172 5.13599C506.02 5.13599 506.804 5.31199 507.524 5.66399C508.26 6.01599 508.844 6.46399 509.276 7.00799V6.43199C509.276 6.09599 509.38 5.81599 509.588 5.59199C509.796 5.36799 510.068 5.25599 510.404 5.25599ZM505.508 16.128C506.26 16.128 506.924 15.936 507.5 15.552C508.092 15.168 508.548 14.64 508.868 13.968C509.204 13.296 509.372 12.536 509.372 11.688C509.372 10.856 509.204 10.104 508.868 9.43199C508.548 8.75999 508.092 8.23199 507.5 7.84799C506.924 7.44799 506.26 7.24799 505.508 7.24799C504.756 7.24799 504.084 7.43999 503.492 7.82399C502.916 8.20799 502.46 8.73599 502.124 9.40799C501.804 10.08 501.644 10.84 501.644 11.688C501.644 12.536 501.804 13.296 502.124 13.968C502.46 14.64 502.916 15.168 503.492 15.552C504.084 15.936 504.756 16.128 505.508 16.128Z" fill="white"/>
<path d="M529.37 5.20799C532.17 5.20799 533.57 6.95199 533.57 10.44V16.848C533.57 17.184 533.466 17.464 533.258 17.688C533.05 17.896 532.778 18 532.442 18C532.106 18 531.826 17.888 531.602 17.664C531.394 17.44 531.29 17.168 531.29 16.848V10.464C531.29 8.36799 530.41 7.31999 528.65 7.31999C528.026 7.31999 527.458 7.46399 526.946 7.75199C526.45 8.02399 526.058 8.39999 525.77 8.87999C525.498 9.35999 525.362 9.88799 525.362 10.464V16.848C525.362 17.168 525.25 17.44 525.026 17.664C524.818 17.888 524.546 18 524.21 18C523.874 18 523.602 17.896 523.394 17.688C523.186 17.464 523.082 17.184 523.082 16.848V10.44C523.082 9.49599 522.882 8.74399 522.482 8.18399C522.082 7.60799 521.418 7.31999 520.49 7.31999C519.546 7.31999 518.762 7.62399 518.138 8.23199C517.53 8.82399 517.226 9.55999 517.226 10.44V16.848C517.226 17.168 517.114 17.44 516.89 17.664C516.682 17.888 516.41 18 516.074 18C515.738 18 515.466 17.896 515.258 17.688C515.05 17.464 514.946 17.184 514.946 16.848V6.57599C514.946 6.25599 515.05 5.98399 515.258 5.75999C515.482 5.53599 515.754 5.42399 516.074 5.42399C516.41 5.42399 516.682 5.53599 516.89 5.75999C517.114 5.98399 517.226 6.25599 517.226 6.57599V7.41599C517.642 6.79199 518.194 6.27199 518.882 5.85599C519.586 5.42399 520.346 5.20799 521.162 5.20799C523.146 5.20799 524.434 6.08799 525.026 7.84799C525.378 7.17599 525.962 6.56799 526.778 6.02399C527.594 5.47999 528.458 5.20799 529.37 5.20799Z" fill="white"/>
<path d="M494.896 89.176C495.232 89.176 495.496 89.288 495.688 89.512C495.896 89.72 496 89.992 496 90.328V99.544C496 100.808 495.72 101.944 495.16 102.952C494.6 103.96 493.824 104.752 492.832 105.328C491.856 105.888 490.752 106.168 489.52 106.168C488.272 106.168 487.152 105.888 486.16 105.328C485.168 104.752 484.392 103.96 483.832 102.952C483.272 101.944 482.992 100.808 482.992 99.544V90.328C482.992 89.992 483.104 89.72 483.328 89.512C483.552 89.288 483.84 89.176 484.192 89.176C484.496 89.176 484.76 89.288 484.984 89.512C485.224 89.736 485.344 90.008 485.344 90.328V99.544C485.344 100.376 485.536 101.128 485.92 101.8C486.304 102.456 486.816 102.968 487.456 103.336C488.096 103.704 488.784 103.888 489.52 103.888C490.288 103.888 491 103.704 491.656 103.336C492.312 102.968 492.832 102.456 493.216 101.8C493.616 101.128 493.816 100.376 493.816 99.544V90.328C493.816 89.992 493.912 89.72 494.104 89.512C494.296 89.288 494.56 89.176 494.896 89.176Z" fill="white"/>
<path d="M511.774 104.272C511.918 104.464 511.99 104.696 511.99 104.968C511.99 105.304 511.87 105.576 511.63 105.784C511.406 105.992 511.15 106.096 510.862 106.096C510.462 106.096 510.15 105.936 509.926 105.616L505.27 99.376L500.71 105.592C500.47 105.928 500.158 106.096 499.774 106.096C499.486 106.096 499.238 106 499.03 105.808C498.838 105.6 498.742 105.368 498.742 105.112C498.742 104.84 498.838 104.576 499.03 104.32L503.95 97.624L499.006 90.976C498.846 90.768 498.766 90.536 498.766 90.28C498.766 89.96 498.878 89.688 499.102 89.464C499.342 89.24 499.614 89.128 499.918 89.128C500.094 89.128 500.262 89.168 500.422 89.248C500.598 89.328 500.742 89.448 500.854 89.608L505.462 95.8L510.022 89.68C510.294 89.328 510.598 89.152 510.934 89.152C511.222 89.152 511.47 89.264 511.678 89.488C511.902 89.696 512.014 89.936 512.014 90.208C512.014 90.448 511.934 90.68 511.774 90.904L506.782 97.576L511.774 104.272Z" fill="white"/>
<path d="M514.505 109.168C514.249 109.168 514.009 109.072 513.785 108.88C513.577 108.688 513.473 108.456 513.473 108.184C513.473 108.056 513.513 107.896 513.593 107.704L523.649 87.448C523.873 87.016 524.185 86.8 524.585 86.8C524.825 86.8 525.049 86.896 525.257 87.088C525.465 87.264 525.569 87.488 525.569 87.76C525.569 87.952 525.529 88.128 525.449 88.288L515.417 108.544C515.225 108.96 514.921 109.168 514.505 109.168Z" fill="white"/>
<path d="M540.037 89.176C540.373 89.176 540.637 89.288 540.829 89.512C541.037 89.72 541.141 89.992 541.141 90.328V99.544C541.141 100.808 540.861 101.944 540.301 102.952C539.741 103.96 538.965 104.752 537.973 105.328C536.997 105.888 535.893 106.168 534.661 106.168C533.413 106.168 532.293 105.888 531.301 105.328C530.309 104.752 529.533 103.96 528.973 102.952C528.413 101.944 528.133 100.808 528.133 99.544V90.328C528.133 89.992 528.245 89.72 528.469 89.512C528.693 89.288 528.981 89.176 529.333 89.176C529.637 89.176 529.901 89.288 530.125 89.512C530.365 89.736 530.485 90.008 530.485 90.328V99.544C530.485 100.376 530.677 101.128 531.061 101.8C531.445 102.456 531.957 102.968 532.597 103.336C533.237 103.704 533.925 103.888 534.661 103.888C535.429 103.888 536.141 103.704 536.797 103.336C537.453 102.968 537.973 102.456 538.357 101.8C538.757 101.128 538.957 100.376 538.957 99.544V90.328C538.957 89.992 539.053 89.72 539.245 89.512C539.437 89.288 539.701 89.176 540.037 89.176Z" fill="white"/>
<path d="M547.501 104.824C547.501 105.16 547.381 105.44 547.141 105.664C546.901 105.888 546.621 106 546.301 106C545.949 106 545.661 105.888 545.437 105.664C545.229 105.44 545.125 105.16 545.125 104.824V90.352C545.125 90.032 545.237 89.76 545.461 89.536C545.685 89.312 545.973 89.2 546.325 89.2C546.645 89.2 546.917 89.312 547.141 89.536C547.381 89.76 547.501 90.032 547.501 90.352V104.824Z" fill="white"/>
<line x1="42.0453" y1="272.702" x2="90.0453" y2="118.702" stroke="#35A2F1" stroke-width="2"/>
<line x1="69.0091" y1="272.866" x2="89.876" y2="118.848" stroke="#35A2F1" stroke-width="2"/>
<line x1="95.0005" y1="273.033" x2="89.9805" y2="119.033" stroke="#35A2F1" stroke-width="2"/>
<line x1="154.077" y1="272.386" x2="90.0775" y2="119.386" stroke="#EB5C68" stroke-width="2"/>
<line x1="181.14" y1="272.509" x2="91.1395" y2="120.509" stroke="#EB5C68" stroke-width="2"/>
<line x1="208.208" y1="272.611" x2="90.2082" y2="119.611" stroke="#EB5C68" stroke-width="2"/>
<line x1="154.262" y1="271.325" x2="295.262" y2="117.325" stroke="#EB5C68" stroke-width="2"/>
<line x1="182.192" y1="272.411" x2="295.192" y2="117.411" stroke="#EB5C68" stroke-width="2"/>
<line x1="269.013" y1="272.841" x2="294.013" y2="117.841" stroke="#FBB374" stroke-width="2"/>
<line x1="296" y1="272.006" x2="295" y2="118.006" stroke="#FBB374" stroke-width="2"/>
<line x1="323.016" y1="273.178" x2="295.016" y2="118.178" stroke="#FBB374" stroke-width="2"/>
<line x1="323.35" y1="272.24" x2="504.35" y2="117.24" stroke="#FBB374" stroke-width="2"/>
<line x1="381.127" y1="272.488" x2="295.127" y2="118.488" stroke="#72D374" stroke-width="2"/>
<line x1="408.153" y1="271.469" x2="504.153" y2="118.469" stroke="#72D374" stroke-width="2"/>
<line x1="436.082" y1="271.604" x2="502.082" y2="118.604" stroke="#72D374" stroke-width="2"/>
<line x1="497.001" y1="272.967" x2="502.092" y2="117.971" stroke="#8F85FF" stroke-width="2"/>
<line x1="523.008" y1="271.123" x2="504.008" y2="118.123" stroke="#8F85FF" stroke-width="2"/>
<line x1="549.04" y1="272.28" x2="504.04" y2="118.28" stroke="#8F85FF" stroke-width="2"/>
<line x1="497.65" y1="271.937" x2="90.6501" y2="119.937" stroke="#8F85FF" stroke-width="2"/>
<line x1="524.669" y1="271.944" x2="90.6694" y2="119.944" stroke="#8F85FF" stroke-width="2"/>
<line x1="380.533" y1="272.884" x2="90.5334" y2="119.884" stroke="#72D374" stroke-width="2"/>
<line x1="407.565" y1="272.901" x2="90.5653" y2="119.901" stroke="#72D374" stroke-width="2"/>
<line x1="434.594" y1="272.914" x2="90.5936" y2="119.914" stroke="#72D374" stroke-width="2"/>
<line x1="269.353" y1="271.762" x2="90.3527" y2="119.762" stroke="#FBB374" stroke-width="2"/>
<line x1="296.406" y1="271.805" x2="90.4063" y2="119.805" stroke="#FBB374" stroke-width="2"/>
<line x1="194.482" y1="29.316" x2="88.316" y2="75.5179" stroke="white" stroke-width="2" stroke-linecap="round"/>
<line x1="1" y1="-1" x2="116.784" y2="-1" transform="matrix(0.916935 0.399037 0.399037 -0.916935 195 28)" stroke="white" stroke-width="2" stroke-linecap="round"/>
<line x1="469.322" y1="27.2411" x2="304.241" y2="75.678" stroke="white" stroke-width="2" stroke-linecap="round"/>
<line x1="470.398" y1="27.2138" x2="505.214" y2="74.602" stroke="white" stroke-width="2" stroke-linecap="round"/>
</svg>
