<svg width="48" height="44" viewBox="0 0 48 44" fill="none" xmlns="http://www.w3.org/2000/svg">
<g filter="url(#filter0_d)">
<path d="M32.3585 12.6174C31.713 12.8917 31.0251 13.0735 30.308 13.1618C30.7311 12.5764 31.6088 12.0646 31.8735 11.2564C31.1857 11.6537 30.4263 11.9343 29.6169 12.0909C28.9638 11.4172 28.033 11 27.0175 11C25.0473 11 23.4612 12.5491 23.4612 14.4481C23.4612 14.7214 23.485 14.9841 23.5436 15.2343C20.5851 15.0945 17.9672 13.7209 16.2086 11.6285C15.9016 12.1445 15.7215 12.7351 15.7215 13.3709C15.7215 14.5648 16.3561 15.6231 17.3022 16.2358C16.7304 16.2253 16.1695 16.0645 15.6943 15.8112C15.6943 15.8217 15.6943 15.8354 15.6943 15.8491C15.6943 17.5243 16.9387 18.7051 18.5455 19.2362C18.2558 19.313 17.9401 19.3497 17.6125 19.3497C17.3846 19.3497 17.1546 19.3371 16.9387 19.2909C17.3998 20.6561 18.7082 21.6597 20.264 21.6923C19.0532 22.6098 17.5159 23.1626 15.8517 23.1626C15.5598 23.1626 15.2799 23.15 15 23.1153C16.5764 24.1 18.4446 24.6623 20.4592 24.6623C27.0077 24.6623 30.5879 19.4075 30.5879 14.8528C30.5879 14.7004 30.5825 14.5532 30.5749 14.4072C31.2812 13.9216 31.8746 13.3152 32.3585 12.6174Z" fill="white" fill-opacity="0.1"/>
<path d="M20.2723 21.2924C19.1219 21.2683 18.1272 20.6487 17.589 19.7497C17.5969 19.7497 17.6047 19.7497 17.6125 19.7497C17.9693 19.7497 18.3199 19.7098 18.6479 19.6229L19.948 19.2786L18.671 18.8565C17.3734 18.4275 16.4066 17.5807 16.1574 16.441C16.5179 16.5586 16.9031 16.6285 17.2948 16.6357L18.6953 16.6615L17.5196 15.9001C16.6791 15.3557 16.1215 14.4196 16.1215 13.3709C16.1215 13.0096 16.1875 12.6641 16.3082 12.3409C18.1221 14.2592 20.672 15.499 23.5248 15.6338L24.0539 15.6588L23.9331 15.143C23.8831 14.9297 23.8612 14.6987 23.8612 14.4481C23.8612 12.7807 25.2573 11.4 27.0175 11.4C27.9228 11.4 28.7506 11.772 29.3297 12.3693L29.4804 12.5247L29.6929 12.4836C30.0097 12.4223 30.3196 12.3429 30.6214 12.2456C30.3977 12.4577 30.1545 12.6913 29.9838 12.9275L29.4465 13.6709L30.3569 13.5588C30.6261 13.5257 30.8916 13.4799 31.1529 13.4216C30.9041 13.6604 30.636 13.8798 30.3483 14.0775L30.1638 14.2044L30.1754 14.4279C30.1828 14.5701 30.1879 14.7098 30.1879 14.8528C30.1879 19.223 26.7522 24.2623 20.4592 24.2623C19.1082 24.2623 17.8272 23.9997 16.6626 23.5207C18.1032 23.3712 19.4265 22.8288 20.5055 22.0111L21.4222 21.3165L20.2723 21.2924Z" stroke="white" stroke-width="0.8"/>
</g>
<defs>
<filter id="filter0_d" x="0" y="0" width="47.3585" height="43.6623" filterUnits="userSpaceOnUse" color-interpolation-filters="sRGB">
<feFlood flood-opacity="0" result="BackgroundImageFix"/>
<feColorMatrix in="SourceAlpha" type="matrix" values="0 0 0 0 0 0 0 0 0 0 0 0 0 0 0 0 0 0 127 0"/>
<feOffset dy="4"/>
<feGaussianBlur stdDeviation="7.5"/>
<feColorMatrix type="matrix" values="0 0 0 0 0.207843 0 0 0 0 0.607843 0 0 0 0 0.929412 0 0 0 1 0"/>
<feBlend mode="normal" in2="BackgroundImageFix" result="effect1_dropShadow"/>
<feBlend mode="normal" in="SourceGraphic" in2="effect1_dropShadow" result="shape"/>
</filter>
</defs>
</svg>
