<svg width="46" height="44" viewBox="0 0 46 44" fill="none" xmlns="http://www.w3.org/2000/svg">
<path d="M20.2502 27.1875H25.7502" stroke="white" stroke-linecap="round" stroke-linejoin="round"/>
<path d="M20.9377 29.9375H25.0627" stroke="white" stroke-linecap="round" stroke-linejoin="round"/>
<g filter="url(#filter0_d)">
<path d="M18.8746 24.4375C17.7204 23.5717 16.8679 22.3646 16.4378 20.9874C16.0076 19.6101 16.0218 18.1324 16.4781 16.7636C16.9345 15.3948 17.8099 14.2042 18.9805 13.3606C20.151 12.517 21.5573 12.063 23.0002 12.063C24.4431 12.063 25.8494 12.517 27.0199 13.3606C28.1905 14.2042 29.0659 15.3947 29.5223 16.7636C29.9786 18.1324 29.9928 19.6101 29.5627 20.9873C29.1325 22.3646 28.28 23.5717 27.1258 24.4375" fill="white" fill-opacity="0.1"/>
<path d="M18.8746 24.4375C17.7204 23.5717 16.8679 22.3646 16.4378 20.9874C16.0076 19.6101 16.0218 18.1324 16.4781 16.7636C16.9345 15.3948 17.8099 14.2042 18.9805 13.3606C20.151 12.517 21.5573 12.063 23.0002 12.063C24.4431 12.063 25.8494 12.517 27.0199 13.3606C28.1905 14.2042 29.0659 15.3947 29.5223 16.7636C29.9786 18.1324 29.9928 19.6101 29.5627 20.9873C29.1325 22.3646 28.28 23.5717 27.1258 24.4375" stroke="white" stroke-linecap="round" stroke-linejoin="round"/>
</g>
<defs>
<filter id="filter0_d" x="0.625198" y="0.562988" width="44.75" height="43.3746" filterUnits="userSpaceOnUse" color-interpolation-filters="sRGB">
<feFlood flood-opacity="0" result="BackgroundImageFix"/>
<feColorMatrix in="SourceAlpha" type="matrix" values="0 0 0 0 0 0 0 0 0 0 0 0 0 0 0 0 0 0 127 0"/>
<feOffset dy="4"/>
<feGaussianBlur stdDeviation="7.5"/>
<feColorMatrix type="matrix" values="0 0 0 0 1 0 0 0 0 1 0 0 0 0 1 0 0 0 0.8 0"/>
<feBlend mode="normal" in2="BackgroundImageFix" result="effect1_dropShadow"/>
<feBlend mode="normal" in="SourceGraphic" in2="effect1_dropShadow" result="shape"/>
</filter>
</defs>
</svg>
