<svg width="117" height="23" viewBox="0 0 117 23" fill="none" xmlns="http://www.w3.org/2000/svg">
<rect width="117" height="23" rx="2" fill="black" fill-opacity="0.1"/>
<path d="M11.1458 13.125C12.7911 13.125 14.125 11.7912 14.125 10.1458C14.125 8.50049 12.7911 7.16667 11.1458 7.16667C9.50044 7.16667 8.16663 8.50049 8.16663 10.1458C8.16663 11.7912 9.50044 13.125 11.1458 13.125Z" stroke="black" stroke-linecap="round" stroke-linejoin="round"/>
<path d="M13.8542 15.8333C15.4995 15.8333 16.8333 14.4995 16.8333 12.8542C16.8333 11.2088 15.4995 9.875 13.8542 9.875C12.2088 9.875 10.875 11.2088 10.875 12.8542C10.875 14.4995 12.2088 15.8333 13.8542 15.8333Z" stroke="black" stroke-linecap="round" stroke-linejoin="round"/>
<path d="M12.5 10.4167L13.5833 11.5" stroke="black" stroke-linecap="round" stroke-linejoin="round"/>
<path d="M11.4166 11.5L12.5 12.5833" stroke="black" stroke-linecap="round" stroke-linejoin="round"/>
</svg>
