<svg width="227" height="34" viewBox="0 0 227 34" fill="none" xmlns="http://www.w3.org/2000/svg">
<path d="M128.012 15.406C128.828 15.406 129.566 15.616 130.226 16.036C130.886 16.444 131.402 17.02 131.774 17.764C132.158 18.508 132.35 19.348 132.35 20.284C132.35 21.22 132.158 22.06 131.774 22.804C131.402 23.536 130.886 24.112 130.226 24.532C129.566 24.952 128.84 25.162 128.048 25.162C127.424 25.162 126.842 25.024 126.302 24.748C125.762 24.472 125.324 24.136 124.988 23.74V27.736C124.988 27.976 124.904 28.18 124.736 28.348C124.58 28.516 124.376 28.6 124.124 28.6C123.884 28.6 123.68 28.516 123.512 28.348C123.356 28.192 123.278 27.988 123.278 27.736V16.414C123.278 16.162 123.356 15.952 123.512 15.784C123.668 15.616 123.872 15.532 124.124 15.532C124.376 15.532 124.58 15.616 124.736 15.784C124.904 15.952 124.988 16.162 124.988 16.414V16.936C125.276 16.516 125.696 16.156 126.248 15.856C126.8 15.556 127.388 15.406 128.012 15.406ZM127.814 23.578C128.366 23.578 128.864 23.434 129.308 23.146C129.752 22.858 130.094 22.468 130.334 21.976C130.586 21.472 130.712 20.908 130.712 20.284C130.712 19.66 130.586 19.102 130.334 18.61C130.094 18.106 129.752 17.71 129.308 17.422C128.864 17.134 128.366 16.99 127.814 16.99C127.25 16.99 126.746 17.134 126.302 17.422C125.858 17.698 125.51 18.088 125.258 18.592C125.018 19.096 124.898 19.66 124.898 20.284C124.898 20.908 125.018 21.472 125.258 21.976C125.51 22.48 125.858 22.876 126.302 23.164C126.746 23.44 127.25 23.578 127.814 23.578ZM139.033 15.352C139.345 15.352 139.615 15.436 139.843 15.604C140.071 15.76 140.185 15.958 140.185 16.198C140.185 16.486 140.107 16.708 139.951 16.864C139.807 17.008 139.627 17.08 139.411 17.08C139.303 17.08 139.141 17.044 138.925 16.972C138.673 16.888 138.475 16.846 138.331 16.846C137.959 16.846 137.593 16.978 137.233 17.242C136.885 17.494 136.597 17.848 136.369 18.304C136.153 18.748 136.045 19.246 136.045 19.798V24.136C136.045 24.376 135.961 24.58 135.793 24.748C135.637 24.916 135.433 25 135.181 25C134.929 25 134.725 24.922 134.569 24.766C134.413 24.598 134.335 24.388 134.335 24.136V16.432C134.335 16.192 134.413 15.988 134.569 15.82C134.737 15.652 134.941 15.568 135.181 15.568C135.433 15.568 135.637 15.652 135.793 15.82C135.961 15.988 136.045 16.192 136.045 16.432V17.35C136.309 16.762 136.705 16.288 137.233 15.928C137.761 15.556 138.361 15.364 139.033 15.352ZM143.39 24.136C143.39 24.376 143.306 24.58 143.138 24.748C142.982 24.916 142.778 25 142.526 25C142.286 25 142.082 24.916 141.914 24.748C141.758 24.58 141.68 24.376 141.68 24.136V16.342C141.68 16.102 141.758 15.898 141.914 15.73C142.082 15.562 142.286 15.478 142.526 15.478C142.778 15.478 142.982 15.562 143.138 15.73C143.306 15.898 143.39 16.102 143.39 16.342V24.136ZM142.526 14.29C142.178 14.29 141.926 14.23 141.77 14.11C141.626 13.978 141.554 13.774 141.554 13.498V13.21C141.554 12.922 141.632 12.718 141.788 12.598C141.956 12.478 142.208 12.418 142.544 12.418C142.88 12.418 143.12 12.484 143.264 12.616C143.42 12.736 143.498 12.934 143.498 13.21V13.498C143.498 13.786 143.42 13.99 143.264 14.11C143.108 14.23 142.862 14.29 142.526 14.29ZM153.048 15.478C153.276 15.478 153.468 15.556 153.624 15.712C153.78 15.856 153.858 16.03 153.858 16.234C153.858 16.342 153.816 16.492 153.732 16.684L150.312 24.46C150.24 24.616 150.138 24.742 150.006 24.838C149.874 24.934 149.73 24.988 149.574 25C149.382 25.024 149.202 24.988 149.034 24.892C148.878 24.796 148.758 24.652 148.674 24.46L145.254 16.684C145.194 16.504 145.164 16.354 145.164 16.234C145.164 16.042 145.242 15.868 145.398 15.712C145.554 15.556 145.758 15.478 146.01 15.478C146.19 15.478 146.352 15.526 146.496 15.622C146.64 15.706 146.754 15.838 146.838 16.018L149.556 22.336L152.274 16.018C152.442 15.658 152.7 15.478 153.048 15.478ZM163.324 15.442C163.576 15.442 163.78 15.526 163.936 15.694C164.104 15.85 164.188 16.06 164.188 16.324V24.136C164.188 24.376 164.104 24.58 163.936 24.748C163.78 24.916 163.576 25 163.324 25C163.072 25 162.868 24.922 162.712 24.766C162.556 24.598 162.478 24.388 162.478 24.136V23.668C162.166 24.088 161.74 24.448 161.2 24.748C160.66 25.036 160.078 25.18 159.454 25.18C158.638 25.18 157.894 24.97 157.222 24.55C156.562 24.13 156.04 23.548 155.656 22.804C155.284 22.048 155.098 21.202 155.098 20.266C155.098 19.33 155.284 18.49 155.656 17.746C156.04 16.99 156.562 16.402 157.222 15.982C157.882 15.562 158.608 15.352 159.4 15.352C160.036 15.352 160.624 15.484 161.164 15.748C161.716 16.012 162.154 16.348 162.478 16.756V16.324C162.478 16.072 162.556 15.862 162.712 15.694C162.868 15.526 163.072 15.442 163.324 15.442ZM159.652 23.596C160.216 23.596 160.714 23.452 161.146 23.164C161.59 22.876 161.932 22.48 162.172 21.976C162.424 21.472 162.55 20.902 162.55 20.266C162.55 19.642 162.424 19.078 162.172 18.574C161.932 18.07 161.59 17.674 161.146 17.386C160.714 17.086 160.216 16.936 159.652 16.936C159.088 16.936 158.584 17.08 158.14 17.368C157.708 17.656 157.366 18.052 157.114 18.556C156.874 19.06 156.754 19.63 156.754 20.266C156.754 20.902 156.874 21.472 157.114 21.976C157.366 22.48 157.708 22.876 158.14 23.164C158.584 23.452 159.088 23.596 159.652 23.596ZM169.287 17.242V22.606C169.287 23.206 169.557 23.506 170.097 23.506C170.181 23.506 170.295 23.488 170.439 23.452C170.583 23.404 170.697 23.38 170.781 23.38C170.937 23.38 171.069 23.446 171.177 23.578C171.285 23.71 171.339 23.878 171.339 24.082C171.339 24.334 171.195 24.55 170.907 24.73C170.619 24.91 170.295 25 169.935 25C169.539 25 169.173 24.958 168.837 24.874C168.513 24.79 168.219 24.58 167.955 24.244C167.703 23.896 167.577 23.374 167.577 22.678V17.242H166.533C166.305 17.242 166.113 17.17 165.957 17.026C165.813 16.87 165.741 16.678 165.741 16.45C165.741 16.222 165.813 16.036 165.957 15.892C166.113 15.748 166.305 15.676 166.533 15.676H167.577V14.164C167.577 13.924 167.655 13.72 167.811 13.552C167.979 13.384 168.189 13.3 168.441 13.3C168.681 13.3 168.879 13.384 169.035 13.552C169.203 13.72 169.287 13.924 169.287 14.164V15.676H170.781C171.009 15.676 171.195 15.754 171.339 15.91C171.495 16.054 171.573 16.24 171.573 16.468C171.573 16.696 171.495 16.882 171.339 17.026C171.195 17.17 171.009 17.242 170.781 17.242H169.287ZM181.761 19.924C181.749 20.14 181.659 20.326 181.491 20.482C181.323 20.626 181.125 20.698 180.897 20.698H174.561C174.645 21.574 174.975 22.276 175.551 22.804C176.139 23.332 176.853 23.596 177.693 23.596C178.269 23.596 178.737 23.512 179.097 23.344C179.457 23.176 179.775 22.96 180.051 22.696C180.231 22.588 180.405 22.534 180.573 22.534C180.777 22.534 180.945 22.606 181.077 22.75C181.221 22.894 181.293 23.062 181.293 23.254C181.293 23.506 181.173 23.734 180.933 23.938C180.585 24.286 180.123 24.58 179.547 24.82C178.971 25.06 178.383 25.18 177.783 25.18C176.811 25.18 175.953 24.976 175.209 24.568C174.477 24.16 173.907 23.59 173.499 22.858C173.103 22.126 172.905 21.298 172.905 20.374C172.905 19.366 173.109 18.484 173.517 17.728C173.937 16.96 174.483 16.372 175.155 15.964C175.839 15.556 176.571 15.352 177.351 15.352C178.119 15.352 178.839 15.55 179.511 15.946C180.183 16.342 180.723 16.888 181.131 17.584C181.539 18.28 181.749 19.06 181.761 19.924ZM177.351 16.936C176.679 16.936 176.097 17.128 175.605 17.512C175.113 17.884 174.789 18.466 174.633 19.258H179.943V19.114C179.883 18.478 179.595 17.956 179.079 17.548C178.575 17.14 177.999 16.936 177.351 16.936ZM193.473 15.352C194.289 15.352 195.027 15.562 195.687 15.982C196.347 16.402 196.863 16.984 197.235 17.728C197.619 18.472 197.811 19.312 197.811 20.248C197.811 21.184 197.619 22.03 197.235 22.786C196.863 23.542 196.347 24.13 195.687 24.55C195.027 24.97 194.301 25.18 193.509 25.18C192.885 25.18 192.303 25.042 191.763 24.766C191.223 24.49 190.785 24.148 190.449 23.74V24.262C190.449 24.502 190.365 24.706 190.197 24.874C190.041 25.042 189.837 25.126 189.585 25.126C189.345 25.126 189.141 25.048 188.973 24.892C188.817 24.724 188.739 24.514 188.739 24.262V12.544C188.739 12.292 188.817 12.088 188.973 11.932C189.129 11.764 189.333 11.68 189.585 11.68C189.837 11.68 190.041 11.764 190.197 11.932C190.365 12.1 190.449 12.304 190.449 12.544V16.936C190.737 16.504 191.157 16.132 191.709 15.82C192.261 15.508 192.849 15.352 193.473 15.352ZM193.275 23.596C193.827 23.596 194.325 23.452 194.769 23.164C195.213 22.864 195.555 22.462 195.795 21.958C196.047 21.442 196.173 20.872 196.173 20.248C196.173 19.624 196.047 19.06 195.795 18.556C195.555 18.052 195.213 17.656 194.769 17.368C194.325 17.08 193.827 16.936 193.275 16.936C192.711 16.936 192.207 17.08 191.763 17.368C191.319 17.656 190.971 18.052 190.719 18.556C190.479 19.048 190.359 19.612 190.359 20.248C190.359 20.884 190.479 21.454 190.719 21.958C190.971 22.462 191.319 22.864 191.763 23.164C192.207 23.452 192.711 23.596 193.275 23.596ZM208.076 19.924C208.064 20.14 207.974 20.326 207.806 20.482C207.638 20.626 207.44 20.698 207.212 20.698H200.876C200.96 21.574 201.29 22.276 201.866 22.804C202.454 23.332 203.168 23.596 204.008 23.596C204.584 23.596 205.052 23.512 205.412 23.344C205.772 23.176 206.09 22.96 206.366 22.696C206.546 22.588 206.72 22.534 206.888 22.534C207.092 22.534 207.26 22.606 207.392 22.75C207.536 22.894 207.608 23.062 207.608 23.254C207.608 23.506 207.488 23.734 207.248 23.938C206.9 24.286 206.438 24.58 205.862 24.82C205.286 25.06 204.698 25.18 204.098 25.18C203.126 25.18 202.268 24.976 201.524 24.568C200.792 24.16 200.222 23.59 199.814 22.858C199.418 22.126 199.22 21.298 199.22 20.374C199.22 19.366 199.424 18.484 199.832 17.728C200.252 16.96 200.798 16.372 201.47 15.964C202.154 15.556 202.886 15.352 203.666 15.352C204.434 15.352 205.154 15.55 205.826 15.946C206.498 16.342 207.038 16.888 207.446 17.584C207.854 18.28 208.064 19.06 208.076 19.924ZM203.666 16.936C202.994 16.936 202.412 17.128 201.92 17.512C201.428 17.884 201.104 18.466 200.948 19.258H206.258V19.114C206.198 18.478 205.91 17.956 205.394 17.548C204.89 17.14 204.314 16.936 203.666 16.936ZM212.617 17.242V22.606C212.617 23.206 212.887 23.506 213.427 23.506C213.511 23.506 213.625 23.488 213.769 23.452C213.913 23.404 214.027 23.38 214.111 23.38C214.267 23.38 214.399 23.446 214.507 23.578C214.615 23.71 214.669 23.878 214.669 24.082C214.669 24.334 214.525 24.55 214.237 24.73C213.949 24.91 213.625 25 213.265 25C212.869 25 212.503 24.958 212.167 24.874C211.843 24.79 211.549 24.58 211.285 24.244C211.033 23.896 210.907 23.374 210.907 22.678V17.242H209.863C209.635 17.242 209.443 17.17 209.287 17.026C209.143 16.87 209.071 16.678 209.071 16.45C209.071 16.222 209.143 16.036 209.287 15.892C209.443 15.748 209.635 15.676 209.863 15.676H210.907V14.164C210.907 13.924 210.985 13.72 211.141 13.552C211.309 13.384 211.519 13.3 211.771 13.3C212.011 13.3 212.209 13.384 212.365 13.552C212.533 13.72 212.617 13.924 212.617 14.164V15.676H214.111C214.339 15.676 214.525 15.754 214.669 15.91C214.825 16.054 214.903 16.24 214.903 16.468C214.903 16.696 214.825 16.882 214.669 17.026C214.525 17.17 214.339 17.242 214.111 17.242H212.617ZM224.549 15.442C224.801 15.442 225.005 15.526 225.161 15.694C225.329 15.85 225.413 16.06 225.413 16.324V24.136C225.413 24.376 225.329 24.58 225.161 24.748C225.005 24.916 224.801 25 224.549 25C224.297 25 224.093 24.922 223.937 24.766C223.781 24.598 223.703 24.388 223.703 24.136V23.668C223.391 24.088 222.965 24.448 222.425 24.748C221.885 25.036 221.303 25.18 220.679 25.18C219.863 25.18 219.119 24.97 218.447 24.55C217.787 24.13 217.265 23.548 216.881 22.804C216.509 22.048 216.323 21.202 216.323 20.266C216.323 19.33 216.509 18.49 216.881 17.746C217.265 16.99 217.787 16.402 218.447 15.982C219.107 15.562 219.833 15.352 220.625 15.352C221.261 15.352 221.849 15.484 222.389 15.748C222.941 16.012 223.379 16.348 223.703 16.756V16.324C223.703 16.072 223.781 15.862 223.937 15.694C224.093 15.526 224.297 15.442 224.549 15.442ZM220.877 23.596C221.441 23.596 221.939 23.452 222.371 23.164C222.815 22.876 223.157 22.48 223.397 21.976C223.649 21.472 223.775 20.902 223.775 20.266C223.775 19.642 223.649 19.078 223.397 18.574C223.157 18.07 222.815 17.674 222.371 17.386C221.939 17.086 221.441 16.936 220.877 16.936C220.313 16.936 219.809 17.08 219.365 17.368C218.933 17.656 218.591 18.052 218.339 18.556C218.099 19.06 217.979 19.63 217.979 20.266C217.979 20.902 218.099 21.472 218.339 21.976C218.591 22.48 218.933 22.876 219.365 23.164C219.809 23.452 220.313 23.596 220.877 23.596Z" fill="white" fill-opacity="0.8"/>
<path d="M19.1988 0V21.7474C19.1988 22.4949 18.9723 23.1405 18.5192 23.6842C18.0662 24.2053 17.5338 24.4658 16.9222 24.4658C15.3591 24.4658 14.0791 23.5596 13.0824 21.7474L4.72325 8.66496V24.1939H0V0H4.55335L14.4756 15.8348V0H19.1988Z" fill="white"/>
<path d="M34.2595 15.427V13.6601C34.2595 11.9837 34.0103 10.7038 33.512 9.82029C33.0362 8.9368 32.0281 8.49506 30.4877 8.49506C27.9958 8.49506 26.7499 10.1714 26.7499 13.5241V15.2911C26.7499 18.893 27.9958 20.694 30.4877 20.694C32.0961 20.694 33.1495 20.0937 33.6479 18.893C34.0556 17.9416 34.2595 16.7862 34.2595 15.427ZM38.677 14.4076C38.677 18.5985 37.8841 21.4076 36.2983 22.8347C34.9618 24.058 33.0249 24.6697 30.4877 24.6697C27.2483 24.6697 25.0622 23.7182 23.9295 21.8153C22.8648 20.071 22.3325 17.6018 22.3325 14.4076C22.3325 11.4174 22.8648 9.07272 23.9295 7.37371C25.1075 5.47082 27.2483 4.51937 30.3518 4.51937C33.478 4.51937 35.6414 5.35755 36.842 7.03391C38.0653 8.68761 38.677 11.1455 38.677 14.4076Z" fill="white"/>
<path d="M60.797 11.995L60.831 14.6115C60.7404 16.2652 60.5365 17.6584 60.2194 18.7911C59.9022 19.9237 59.2792 20.9545 58.3505 21.8833C56.81 23.4237 54.5673 24.1939 51.6224 24.1939C48.1564 24.1939 45.7778 23.7409 44.4865 22.8347C43.1953 21.9059 42.5496 20.2409 42.5496 17.8396V0H51.9622C54.6806 0 56.81 0.770218 58.3505 2.31065C59.5964 3.5566 60.3326 5.07438 60.5592 6.86401C60.7177 8.1326 60.797 9.84294 60.797 11.995ZM55.0544 18.4853C55.4848 17.9642 55.7566 17.2506 55.8699 16.3445C56.0058 15.4157 56.0738 13.9772 56.0738 12.029C56.0738 10.0808 56.0058 8.67629 55.8699 7.81545C55.7566 6.93197 55.4848 6.22971 55.0544 5.70868C54.2388 4.71193 53.0609 4.21355 51.5204 4.21355H47.2729V17.6018C47.2729 18.5079 47.5787 19.1309 48.1904 19.4707C48.802 19.8105 49.8894 19.9804 51.4525 19.9804C53.0382 19.9804 54.2388 19.482 55.0544 18.4853Z" fill="white"/>
<path d="M75.1088 15.427V13.6601C75.1088 11.9837 74.8596 10.7038 74.3613 9.82029C73.8855 8.9368 72.8774 8.49506 71.337 8.49506C68.8451 8.49506 67.5992 10.1714 67.5992 13.5241V15.2911C67.5992 18.893 68.8451 20.694 71.337 20.694C72.9454 20.694 73.9988 20.0937 74.4972 18.893C74.9049 17.9416 75.1088 16.7862 75.1088 15.427ZM79.5262 14.4076C79.5262 18.5985 78.7334 21.4076 77.1476 22.8347C75.8111 24.058 73.8742 24.6697 71.337 24.6697C68.0976 24.6697 65.9115 23.7182 64.7788 21.8153C63.7141 20.071 63.1817 17.6018 63.1817 14.4076C63.1817 11.4174 63.7141 9.07272 64.7788 7.37371C65.9568 5.47082 68.0976 4.51937 71.2011 4.51937C74.3273 4.51937 76.4907 5.35755 77.6913 7.03391C78.9146 8.68761 79.5262 11.1455 79.5262 14.4076Z" fill="white"/>
<path d="M92.9814 17.0921L96.991 17.0581C96.9684 17.2393 96.9457 17.5678 96.9231 18.0435C96.9004 18.5192 96.8778 18.8477 96.8551 19.0289C96.8551 19.1875 96.8325 19.448 96.7872 19.8105C96.7419 20.1729 96.6852 20.4448 96.6172 20.626C96.5719 20.7846 96.504 20.9998 96.4134 21.2716C96.0056 22.4496 94.8956 23.3784 93.0833 24.058C91.928 24.4658 90.716 24.6697 89.4474 24.6697C88.2015 24.6697 87.0688 24.4658 86.0494 24.058C85.03 23.6502 84.2258 23.1292 83.6368 22.4949C82.3002 21.0904 81.632 18.4626 81.632 14.6115C81.632 10.7378 82.3002 8.09862 83.6368 6.69411C84.2258 6.05981 85.03 5.53878 86.0494 5.13102C87.0688 4.72325 88.2015 4.51937 89.4474 4.51937C91.894 4.51937 93.7516 5.13101 95.0202 6.3543C96.2888 7.57759 96.9231 9.2766 96.9231 11.4513H92.9134C92.9134 10.4546 92.6642 9.71835 92.1658 9.24263C91.6675 8.74425 90.7387 8.49506 89.3795 8.49506C88.0429 8.49506 87.1481 8.91415 86.695 9.75233C86.2646 10.5905 86.0494 11.8478 86.0494 13.5241V15.2911C86.0494 17.9869 86.5704 19.6406 87.6125 20.2522C88.0882 20.5467 88.7112 20.694 89.4814 20.694C90.2516 20.694 90.8746 20.626 91.3503 20.4901C91.8487 20.3315 92.1998 20.071 92.4037 19.7085C92.6302 19.3461 92.7775 18.995 92.8454 18.6552C92.9134 18.2927 92.9587 17.7717 92.9814 17.0921Z" fill="white"/>
<path d="M114 18.8251V19.3348C113.864 21.0338 113.139 22.3137 111.825 23.1745C110.534 24.0354 108.914 24.4658 106.966 24.4658C104.089 24.4658 102.073 23.9447 100.918 22.9027C99.8529 21.9512 99.3205 20.5467 99.3205 18.6891V18.2814H103.33C103.33 19.3234 103.602 20.037 104.146 20.4221C104.689 20.8072 105.63 20.9998 106.966 20.9998C108.778 20.9998 109.685 20.3428 109.685 19.0289C109.685 17.9416 109.367 17.2167 108.733 16.8542C108.439 16.673 108.065 16.5371 107.612 16.4464L104.18 15.8688C101.189 15.3931 99.6943 13.5241 99.6943 10.262C99.6943 8.44975 100.351 7.04524 101.665 6.04848C103.002 5.02907 104.689 4.51937 106.728 4.51937C111.372 4.51937 113.694 6.52421 113.694 10.5339V10.9756H109.854C109.809 9.9109 109.526 9.18599 109.005 8.80088C108.484 8.41577 107.748 8.22322 106.796 8.22322C105.867 8.22322 105.165 8.41577 104.689 8.80088C104.214 9.16334 103.976 9.5711 103.976 10.0242C103.976 11.3154 104.497 12.0517 105.539 12.2329L109.651 12.9805C112.55 13.5241 114 15.4723 114 18.8251Z" fill="white"/>
</svg>
