<svg width="16" height="20" viewBox="0 0 16 20" fill="none" xmlns="http://www.w3.org/2000/svg">
<path d="M5.25024 16.1875H10.7502" stroke="white" stroke-linecap="round" stroke-linejoin="round"/>
<path d="M5.93774 18.9375H10.0627" stroke="white" stroke-linecap="round" stroke-linejoin="round"/>
<path d="M3.87465 13.4375C2.72044 12.5717 1.86791 11.3646 1.4378 9.98736C1.00769 8.61008 1.02181 7.13238 1.47816 5.76357C1.93451 4.39476 2.80996 3.20423 3.98051 2.36059C5.15105 1.51696 6.55736 1.06299 8.00024 1.06299C9.44312 1.06299 10.8494 1.51695 12.02 2.36058C13.1905 3.20421 14.066 4.39475 14.5223 5.76356C14.9787 7.13237 14.9928 8.61006 14.5627 9.98734C14.1326 11.3646 13.2801 12.5717 12.1259 13.4375" fill="white" fill-opacity="0.1"/>
<path d="M3.87465 13.4375C2.72044 12.5717 1.86791 11.3646 1.4378 9.98736C1.00769 8.61008 1.02181 7.13238 1.47816 5.76357C1.93451 4.39476 2.80996 3.20423 3.98051 2.36059C5.15105 1.51696 6.55736 1.06299 8.00024 1.06299C9.44311 1.06299 10.8494 1.51695 12.02 2.36058C13.1905 3.20421 14.066 4.39475 14.5223 5.76356C14.9787 7.13237 14.9928 8.61006 14.5627 9.98734C14.1326 11.3646 13.2801 12.5717 12.1259 13.4375" stroke="white" stroke-linecap="round" stroke-linejoin="round"/>
</svg>
