<svg width="16" height="15" viewBox="0 0 16 15" fill="none" xmlns="http://www.w3.org/2000/svg">
<path d="M4.86109 11.0754C3.82361 11.0518 2.90889 10.441 2.41337 9.5327C2.74528 9.53227 3.07218 9.49165 3.37846 9.40365L4.57014 9.06123L3.40303 8.64268C2.22919 8.22172 1.33436 7.3852 1.10024 6.23893C1.42224 6.34725 1.76495 6.41172 2.11402 6.41868L3.42411 6.4448L2.35196 5.69147C1.58618 5.15341 1.065 4.21703 1.065 3.15389C1.065 2.80818 1.12014 2.47745 1.22083 2.16729C2.89172 4.05638 5.23157 5.28224 7.85452 5.41668L8.37623 5.44343L8.26599 4.9328C8.21938 4.71688 8.199 4.48346 8.199 4.2311C8.199 2.53278 9.50157 1.18296 11.077 1.18296C11.8915 1.18296 12.6434 1.54579 13.1747 2.14037L13.3288 2.31282L13.5552 2.26531C13.8297 2.20769 14.0985 2.13418 14.3608 2.04509C14.1559 2.25588 13.9334 2.48843 13.7771 2.72297L13.2873 3.45818L14.163 3.34123C14.3978 3.30986 14.6296 3.26731 14.8579 3.21358C14.6286 3.45276 14.3816 3.67204 14.1169 3.86948L13.9463 3.9967L13.9565 4.20926C13.9633 4.35174 13.968 4.49199 13.968 4.63572C13.968 9.03834 10.7841 14.0452 5.032 14.0452C3.79114 14.0452 2.61388 13.7827 1.54303 13.3029C2.88144 13.1514 4.10827 12.6045 5.10602 11.7842L5.93852 11.0998L4.86109 11.0754Z" fill="white" fill-opacity="0.1" stroke="white" stroke-width="0.8"/>
</svg>
