<svg width="21" height="20" viewBox="0 0 21 20" fill="none" xmlns="http://www.w3.org/2000/svg">
<path d="M11.4839 2.85096C11.4839 3.30282 11.1048 3.68517 10.6172 3.68517C10.1296 3.68517 9.75057 3.30282 9.75057 2.85096C9.75057 2.39909 10.1296 2.01675 10.6172 2.01675C11.1048 2.01675 11.4839 2.39909 11.4839 2.85096Z" stroke="black" stroke-width="0.7"/>
<path d="M17.9728 6.00892C17.9728 6.46078 17.5937 6.84313 17.1061 6.84313C16.6185 6.84313 16.2395 6.46078 16.2395 6.00892C16.2395 5.55705 16.6185 5.17471 17.1061 5.17471C17.5937 5.17471 17.9728 5.55705 17.9728 6.00892Z" stroke="black" stroke-width="0.7"/>
<path d="M17.9728 9.95618C17.9728 10.408 17.5937 10.7904 17.1061 10.7904C16.6185 10.7904 16.2395 10.408 16.2395 9.95618C16.2395 9.50432 16.6185 9.12197 17.1061 9.12197C17.5937 9.12197 17.9728 9.50432 17.9728 9.95618Z" stroke="black" stroke-width="0.7"/>
<path d="M17.9728 13.9037C17.9728 14.3556 17.5937 14.7379 17.1061 14.7379C16.6185 14.7379 16.2395 14.3556 16.2395 13.9037C16.2395 13.4518 16.6185 13.0695 17.1061 13.0695C17.5937 13.0695 17.9728 13.4518 17.9728 13.9037Z" stroke="black" stroke-width="0.7"/>
<path d="M11.4839 17.0614C11.4839 17.5133 11.1048 17.8956 10.6172 17.8956C10.1296 17.8956 9.75057 17.5133 9.75057 17.0614C9.75057 16.6095 10.1296 16.2272 10.6172 16.2272C11.1048 16.2272 11.4839 16.6095 11.4839 17.0614Z" stroke="black" stroke-width="0.7"/>
<path d="M4.99511 13.9037C4.99511 14.3556 4.61608 14.7379 4.12846 14.7379C3.64084 14.7379 3.2618 14.3556 3.2618 13.9037C3.2618 13.4518 3.64084 13.0695 4.12846 13.0695C4.61608 13.0695 4.99511 13.4518 4.99511 13.9037Z" stroke="black" stroke-width="0.7"/>
<path d="M4.99511 9.95618C4.99511 10.408 4.61608 10.7904 4.12846 10.7904C3.64084 10.7904 3.2618 10.408 3.2618 9.95618C3.2618 9.50432 3.64084 9.12197 4.12846 9.12197C4.61608 9.12197 4.99511 9.50432 4.99511 9.95618Z" stroke="black" stroke-width="0.7"/>
<path d="M4.99511 6.00892C4.99511 6.46078 4.61608 6.84313 4.12846 6.84313C3.64084 6.84313 3.2618 6.46078 3.2618 6.00892C3.2618 5.55705 3.64084 5.17471 4.12846 5.17471C4.61608 5.17471 4.99511 5.55705 4.99511 6.00892Z" stroke="black" stroke-width="0.7"/>
<path d="M4.93945 9.16671L10.5319 4.28442L16.2949 9.16671M4.93945 10.7457L10.5319 15.6279L16.2949 10.7457" stroke="black"/>
<path d="M4.93958 5.61403L9.8062 3.24561M11.4284 3.24561L16.295 5.61403M17.1061 6.79824V9.16666M17.1061 10.7456V13.114M11.4284 17.0614L16.295 14.2982M9.8062 17.0614L4.93958 14.2982M4.12848 13.114V10.7456M4.12848 9.16666V6.79824" stroke="black"/>
</svg>
