<svg width="33" height="30" viewBox="0 0 33 30" fill="none" xmlns="http://www.w3.org/2000/svg">
<path d="M29.0046 15.294C29.4206 15.528 29.7499 15.8313 29.9926 16.204C30.2439 16.5767 30.3696 16.9753 30.3696 17.4C30.3696 17.8767 30.2396 18.3187 29.9796 18.726C29.7196 19.1247 29.3642 19.4453 28.9136 19.688C28.4629 19.922 27.9689 20.039 27.4316 20.039C26.8942 20.039 26.4002 19.922 25.9496 19.688C25.4989 19.4453 25.1436 19.1247 24.8836 18.726C24.6236 18.3187 24.4936 17.8767 24.4936 17.4C24.4936 16.932 24.6149 16.5247 24.8576 16.178C25.1089 15.8227 25.4296 15.5323 25.8196 15.307C25.4989 15.125 25.2346 14.878 25.0266 14.566C24.8186 14.2453 24.7146 13.8727 24.7146 13.448C24.7146 12.98 24.8359 12.551 25.0786 12.161C25.3212 11.771 25.6462 11.4633 26.0536 11.238C26.4696 11.0127 26.9289 10.9 27.4316 10.9C27.9256 10.9 28.3806 11.0127 28.7966 11.238C29.2126 11.4633 29.5376 11.771 29.7716 12.161C30.0142 12.551 30.1356 12.98 30.1356 13.448C30.1356 13.89 30.0272 14.267 29.8106 14.579C29.5939 14.8823 29.3252 15.1207 29.0046 15.294ZM27.4316 12.044C26.9982 12.044 26.6429 12.1783 26.3656 12.447C26.0882 12.7157 25.9496 13.058 25.9496 13.474C25.9496 13.8813 26.0926 14.2237 26.3786 14.501C26.6646 14.7697 27.0156 14.904 27.4316 14.904C27.8389 14.904 28.1856 14.7697 28.4716 14.501C28.7576 14.2237 28.9006 13.8813 28.9006 13.474C28.9006 13.058 28.7619 12.7157 28.4846 12.447C28.2072 12.1783 27.8562 12.044 27.4316 12.044ZM27.4316 18.895C27.9169 18.895 28.3199 18.752 28.6406 18.466C28.9699 18.18 29.1346 17.8203 29.1346 17.387C29.1346 16.9537 28.9656 16.5897 28.6276 16.295C28.2982 16.0003 27.8996 15.853 27.4316 15.853C26.9636 15.853 26.5649 16.0003 26.2356 16.295C25.9062 16.5897 25.7416 16.9537 25.7416 17.387C25.7416 17.8203 25.9019 18.18 26.2226 18.466C26.5432 18.752 26.9462 18.895 27.4316 18.895Z" fill="black"/>
<path d="M6.44455 12.1023L3.52197 14.947L6.44455 17.7917L9.36712 14.947L6.44455 12.1023Z" stroke="black" stroke-linecap="round" stroke-linejoin="round"/>
<path d="M10.4258 8.22729L7.50322 11.072L10.4258 13.9167L13.3484 11.072L10.4258 8.22729Z" stroke="black" stroke-linecap="round" stroke-linejoin="round"/>
<path d="M14.407 12.1023L11.4845 14.947L14.407 17.7917L17.3296 14.947L14.407 12.1023Z" stroke="black" stroke-linecap="round" stroke-linejoin="round"/>
<path d="M10.4258 15.9775L7.50322 18.8223L10.4258 21.667L13.3484 18.8223L10.4258 15.9775Z" stroke="black" stroke-linecap="round" stroke-linejoin="round"/>
</svg>
