<svg width="38" height="30" viewBox="0 0 38 30" fill="none" xmlns="http://www.w3.org/2000/svg">
<path d="M27.186 10.9C27.3593 10.9087 27.498 10.9737 27.602 11.095C27.7146 11.2077 27.771 11.3507 27.771 11.524V19.376C27.771 19.5493 27.706 19.6967 27.576 19.818C27.446 19.9393 27.2856 20 27.095 20C26.9043 20 26.7483 19.9393 26.627 19.818C26.5056 19.6967 26.445 19.5493 26.445 19.376V12.616L25.301 13.305C25.2056 13.3657 25.0973 13.396 24.976 13.396C24.8026 13.396 24.6553 13.331 24.534 13.201C24.4126 13.0623 24.352 12.915 24.352 12.759C24.352 12.655 24.3823 12.5553 24.443 12.46C24.5036 12.3647 24.5816 12.2867 24.677 12.226L26.731 10.991C26.8523 10.9303 27.004 10.9 27.186 10.9ZM32.7836 20.13C32.0729 20.13 31.4663 19.9307 30.9636 19.532C30.4609 19.1333 30.0796 18.583 29.8196 17.881C29.5683 17.179 29.4426 16.3687 29.4426 15.45C29.4426 14.5313 29.5683 13.721 29.8196 13.019C30.0796 12.317 30.4609 11.7667 30.9636 11.368C31.4663 10.9693 32.0729 10.77 32.7836 10.77C33.4943 10.77 34.1009 10.9693 34.6036 11.368C35.1063 11.7667 35.4833 12.317 35.7346 13.019C35.9946 13.721 36.1246 14.5313 36.1246 15.45C36.1246 16.3687 35.9946 17.179 35.7346 17.881C35.4833 18.583 35.1063 19.1333 34.6036 19.532C34.1009 19.9307 33.4943 20.13 32.7836 20.13ZM32.7836 18.882C33.4163 18.882 33.9059 18.583 34.2526 17.985C34.6079 17.387 34.7856 16.542 34.7856 15.45C34.7856 14.358 34.6079 13.513 34.2526 12.915C33.9059 12.317 33.4163 12.018 32.7836 12.018C32.1509 12.018 31.6569 12.317 31.3016 12.915C30.9549 13.513 30.7816 14.358 30.7816 15.45C30.7816 16.542 30.9549 17.387 31.3016 17.985C31.6569 18.583 32.1509 18.882 32.7836 18.882Z" fill="black"/>
<path d="M8.10701 13.4282H2.97003V18.4282" stroke="black" stroke-linecap="round" stroke-linejoin="round"/>
<path d="M18.6926 10.625C18.6926 12.1084 18.2406 13.5584 17.394 14.7918C16.5473 16.0251 15.3438 16.9864 13.9358 17.5541C12.5279 18.1218 10.9785 18.2703 9.48383 17.9809C7.98912 17.6915 6.61613 16.9772 5.5385 15.9283L2.97001 13.4283" stroke="black" stroke-linecap="round" stroke-linejoin="round"/>
</svg>
