<svg width="33" height="30" viewBox="0 0 33 30" fill="none" xmlns="http://www.w3.org/2000/svg">
<path d="M28.2547 14.241C28.7487 14.241 29.1907 14.3667 29.5807 14.618C29.9793 14.8607 30.2913 15.1943 30.5167 15.619C30.742 16.0437 30.8547 16.5203 30.8547 17.049C30.8547 17.6643 30.7117 18.206 30.4257 18.674C30.1397 19.142 29.7453 19.5017 29.2427 19.753C28.74 20.0043 28.1637 20.13 27.5137 20.13C27.167 20.13 26.829 20.0823 26.4997 19.987C26.179 19.8917 25.9017 19.753 25.6677 19.571C25.4337 19.441 25.3167 19.2633 25.3167 19.038C25.3167 18.8733 25.373 18.7217 25.4857 18.583C25.607 18.4443 25.75 18.375 25.9147 18.375C26.0707 18.375 26.2267 18.4313 26.3827 18.544C26.738 18.8733 27.1843 19.038 27.7217 19.038C28.0597 19.038 28.3717 18.96 28.6577 18.804C28.9523 18.648 29.1863 18.427 29.3597 18.141C29.533 17.8463 29.6197 17.5083 29.6197 17.127C29.6197 16.5637 29.4463 16.1303 29.0997 15.827C28.753 15.5237 28.337 15.372 27.8517 15.372C27.713 15.372 27.5137 15.4023 27.2537 15.463C27.063 15.515 26.92 15.541 26.8247 15.541C26.6687 15.541 26.543 15.489 26.4477 15.385C26.3523 15.2723 26.3047 15.1337 26.3047 14.969C26.3047 14.8737 26.322 14.7913 26.3567 14.722C26.3913 14.6527 26.4477 14.5703 26.5257 14.475L28.7357 12.044H25.7327C25.568 12.044 25.4293 11.9877 25.3167 11.875C25.204 11.7623 25.1477 11.6237 25.1477 11.459C25.1477 11.2943 25.204 11.16 25.3167 11.056C25.4293 10.952 25.568 10.9 25.7327 10.9H29.8797C30.079 10.9 30.235 10.9607 30.3477 11.082C30.4603 11.2033 30.5167 11.3507 30.5167 11.524C30.5167 11.68 30.4343 11.8403 30.2697 12.005L28.2547 14.241Z" fill="black"/>
<path d="M10.9246 21.8745H4.15558C3.99237 21.8745 3.83585 21.8114 3.72044 21.6991C3.60504 21.5868 3.54021 21.4344 3.54021 21.2756V14.687C3.54021 13.7431 3.73121 12.8085 4.10231 11.9365C4.47341 11.0644 5.01734 10.2721 5.70305 9.60468C6.38875 8.93726 7.2028 8.40783 8.09872 8.04663C8.99464 7.68542 9.95488 7.49951 10.9246 7.49951H10.9246C11.8944 7.49951 12.8546 7.68542 13.7505 8.04663C14.6464 8.40783 15.4605 8.93726 16.1462 9.60468C16.8319 10.2721 17.3758 11.0644 17.7469 11.9365C18.118 12.8085 18.309 13.7431 18.309 14.687V14.687C18.309 16.5933 17.531 18.4214 16.1462 19.7693C14.7614 21.1173 12.8831 21.8745 10.9246 21.8745Z" stroke="black" stroke-linecap="round" stroke-linejoin="round"/>
<path d="M8.35612 13.7495H13.172" stroke="black" stroke-linecap="round" stroke-linejoin="round"/>
<path d="M8.35612 16.2495H13.172" stroke="black" stroke-linecap="round" stroke-linejoin="round"/>
</svg>
