<svg width="38" height="30" viewBox="0 0 38 30" fill="none" xmlns="http://www.w3.org/2000/svg">
<path d="M10.7269 10.8333C5.83449 10.8333 3.87754 15.0004 3.87754 15.0004C3.87754 15.0004 5.83449 19.1666 10.7269 19.1666C15.6192 19.1666 17.5762 15.0004 17.5762 15.0004C17.5762 15.0004 15.6192 10.8333 10.7269 10.8333Z" stroke="black" stroke-linecap="round" stroke-linejoin="round"/>
<path d="M10.7269 16.6666C11.6725 16.6666 12.4392 15.9204 12.4392 14.9999C12.4392 14.0794 11.6725 13.3333 10.7269 13.3333C9.78116 13.3333 9.01453 14.0794 9.01453 14.9999C9.01453 15.9204 9.78116 16.6666 10.7269 16.6666Z" stroke="black" stroke-linecap="round" stroke-linejoin="round"/>
<path d="M27.1098 10.9C27.2832 10.9087 27.4218 10.9737 27.5258 11.095C27.6385 11.2077 27.6948 11.3507 27.6948 11.524V19.376C27.6948 19.5493 27.6298 19.6967 27.4998 19.818C27.3698 19.9393 27.2095 20 27.0188 20C26.8282 20 26.6722 19.9393 26.5508 19.818C26.4295 19.6967 26.3688 19.5493 26.3688 19.376V12.616L25.2248 13.305C25.1295 13.3657 25.0212 13.396 24.8998 13.396C24.7265 13.396 24.5792 13.331 24.4578 13.201C24.3365 13.0623 24.2758 12.915 24.2758 12.759C24.2758 12.655 24.3062 12.5553 24.3668 12.46C24.4275 12.3647 24.5055 12.2867 24.6008 12.226L26.6548 10.991C26.7762 10.9303 26.9278 10.9 27.1098 10.9ZM34.0984 15.294C34.5144 15.528 34.8438 15.8313 35.0864 16.204C35.3378 16.5767 35.4634 16.9753 35.4634 17.4C35.4634 17.8767 35.3334 18.3187 35.0734 18.726C34.8134 19.1247 34.4581 19.4453 34.0074 19.688C33.5568 19.922 33.0628 20.039 32.5254 20.039C31.9881 20.039 31.4941 19.922 31.0434 19.688C30.5928 19.4453 30.2374 19.1247 29.9774 18.726C29.7174 18.3187 29.5874 17.8767 29.5874 17.4C29.5874 16.932 29.7088 16.5247 29.9514 16.178C30.2028 15.8227 30.5234 15.5323 30.9134 15.307C30.5928 15.125 30.3284 14.878 30.1204 14.566C29.9124 14.2453 29.8084 13.8727 29.8084 13.448C29.8084 12.98 29.9298 12.551 30.1724 12.161C30.4151 11.771 30.7401 11.4633 31.1474 11.238C31.5634 11.0127 32.0228 10.9 32.5254 10.9C33.0194 10.9 33.4744 11.0127 33.8904 11.238C34.3064 11.4633 34.6314 11.771 34.8654 12.161C35.1081 12.551 35.2294 12.98 35.2294 13.448C35.2294 13.89 35.1211 14.267 34.9044 14.579C34.6878 14.8823 34.4191 15.1207 34.0984 15.294ZM32.5254 12.044C32.0921 12.044 31.7368 12.1783 31.4594 12.447C31.1821 12.7157 31.0434 13.058 31.0434 13.474C31.0434 13.8813 31.1864 14.2237 31.4724 14.501C31.7584 14.7697 32.1094 14.904 32.5254 14.904C32.9328 14.904 33.2794 14.7697 33.5654 14.501C33.8514 14.2237 33.9944 13.8813 33.9944 13.474C33.9944 13.058 33.8558 12.7157 33.5784 12.447C33.3011 12.1783 32.9501 12.044 32.5254 12.044ZM32.5254 18.895C33.0108 18.895 33.4138 18.752 33.7344 18.466C34.0638 18.18 34.2284 17.8203 34.2284 17.387C34.2284 16.9537 34.0594 16.5897 33.7214 16.295C33.3921 16.0003 32.9934 15.853 32.5254 15.853C32.0574 15.853 31.6588 16.0003 31.3294 16.295C31.0001 16.5897 30.8354 16.9537 30.8354 17.387C30.8354 17.8203 30.9958 18.18 31.3164 18.466C31.6371 18.752 32.0401 18.895 32.5254 18.895Z" fill="black"/>
</svg>
