<svg width="22" height="20" viewBox="0 0 22 20" fill="none" xmlns="http://www.w3.org/2000/svg">
<path d="M10.5012 6.27559L11.8126 4.99877C12.0832 4.73508 12.4045 4.52588 12.7581 4.38312C13.1117 4.24036 13.4908 4.16683 13.8736 4.16675C14.2564 4.16666 14.6355 4.24001 14.9892 4.38261C15.3429 4.52522 15.6643 4.73427 15.935 4.99784C16.2057 5.2614 16.4204 5.57432 16.5668 5.9187C16.7133 6.26308 16.7886 6.63219 16.7886 7.00493C16.7885 7.37767 16.713 7.74674 16.5663 8.09105C16.4197 8.43537 16.2048 8.74819 15.934 9.01163L14.0607 10.8357C13.79 11.0991 13.4688 11.3082 13.1152 11.4508C12.7616 11.5934 12.3827 11.6667 11.9999 11.6667C11.6172 11.6667 11.2383 11.5934 10.8847 11.4508C10.5311 11.3082 10.2099 11.0991 9.93924 10.8357" stroke="black" stroke-linecap="round" stroke-linejoin="round"/>
<path d="M11.0895 13.7244L9.77819 15.0012C9.50762 15.2649 9.18634 15.4741 8.83271 15.6169C8.47908 15.7596 8.10003 15.8332 7.7172 15.8333C7.33438 15.8333 6.95529 15.76 6.60159 15.6174C6.24789 15.4748 5.92652 15.2657 5.65582 15.0022C5.38512 14.7386 5.17041 14.4257 5.02395 14.0813C4.87749 13.7369 4.80216 13.3678 4.80225 12.9951C4.80234 12.6223 4.87785 12.2533 5.02447 11.9089C5.1711 11.5646 5.38596 11.2518 5.65678 10.9884L7.53015 9.16434C7.80076 8.90085 8.12203 8.69184 8.47561 8.54925C8.82918 8.40665 9.20815 8.33325 9.59085 8.33325C9.97356 8.33325 10.3525 8.40665 10.7061 8.54925C11.0597 8.69184 11.3809 8.90085 11.6516 9.16434" stroke="black" stroke-linecap="round" stroke-linejoin="round"/>
</svg>
