<svg width="21" height="20" viewBox="0 0 21 20" fill="none" xmlns="http://www.w3.org/2000/svg">
<path d="M10.4392 11.6666C11.3849 11.6666 12.1515 10.9204 12.1515 9.99992C12.1515 9.07944 11.3849 8.33325 10.4392 8.33325C9.49353 8.33325 8.7269 9.07944 8.7269 9.99992C8.7269 10.9204 9.49353 11.6666 10.4392 11.6666Z" stroke="black" stroke-linecap="round" stroke-linejoin="round"/>
<path d="M16.4324 11.6666C17.3781 11.6666 18.1447 10.9204 18.1447 9.99992C18.1447 9.07944 17.3781 8.33325 16.4324 8.33325C15.4867 8.33325 14.72 9.07944 14.72 9.99992C14.72 10.9204 15.4867 11.6666 16.4324 11.6666Z" stroke="black" stroke-linecap="round" stroke-linejoin="round"/>
<path d="M4.44609 11.6666C5.39178 11.6666 6.15842 10.9204 6.15842 9.99992C6.15842 9.07944 5.39178 8.33325 4.44609 8.33325C3.5004 8.33325 2.73376 9.07944 2.73376 9.99992C2.73376 10.9204 3.5004 11.6666 4.44609 11.6666Z" stroke="black" stroke-linecap="round" stroke-linejoin="round"/>
</svg>
